<?xml version="1.0" encoding="UTF-8"?>
<svg width="375px" height="667px" viewBox="0 0 375 667" version="1.1" xmlns="http://www.w3.org/2000/svg" xmlns:xlink="http://www.w3.org/1999/xlink">
    <!-- Generator: Sketch 53.2 (72643) - https://sketchapp.com -->
    <title>Background</title>
    <desc>Created with Sketch.</desc>
    <g id="Authentication" stroke="none" stroke-width="1" fill="none" fill-rule="evenodd">
        <g id="Login">
            <g id="Background" transform="translate(-1.000000, -2.000000)">
                <path d="M212,124.114245 C261.529499,150.265074 320.287232,174.844489 377,161.018088 L376,0 L212,20 L212,124.114245 Z" id="Path-3" fill="#755050"></path>
                <path d="M0.996013936,124.593069 C2.92649602,125.112703 33.4810375,136.211029 41.9141159,139.011826 C48.1494573,140.60334 68.3849845,147.433665 89.1460488,151.492234 C99.7246422,153.560237 121.701656,156.729554 141.387703,157 C142.958102,156.811732 158.298827,157.445267 172.435621,155.710425 C185.081761,154.158515 196.764479,150.208922 196.764479,150.208922 C206.303696,147.152575 213.916679,141.311165 216.266946,138.837501 C222.015772,132.786842 221.62722,124.593069 221.62722,124.593069 C222.174714,123.148155 218.910021,114.064252 218.527649,104.755026 C218.188741,96.5039675 221.539139,88.0758996 224.478545,84.6328604 C227.340967,81.2799962 235.568055,72.361603 244.851322,66.8269538 C255.8565,60.2657079 267.941718,57.2437665 268.611,56.6747727 C297.975997,43.6919592 372,39.2707366 372,2 L366.406039,2 L0,2 L0.996013936,124.593069 Z" id="Path-2" fill="#A7C89A"></path>
                <path d="M1,76 C64.106518,71.9377818 71.6306546,35.5988084 123.894712,18.1891776 C141.911847,12.1875066 177.753659,14.6176929 192.502892,12.3465051 C202.155542,10.8601242 220.966325,4.64357906 230,1 L1,1 L1,76 Z" id="Path" fill="#3B3939"></path>
                <path d="M1,549 C4.02762816,549.926738 10.4105812,555.969391 14.6637728,566.765839 C17.8347654,574.815196 18.3291869,604.719613 24.3812802,618.387 C27.5164414,625.467106 34.6738741,638.448124 46.0318793,645.099885 C60.013052,653.287892 68,655.742124 68,655.742124 C127.515184,675.524741 204.63779,669.500974 266.843155,662.890331 C305.830894,658.747054 341.125213,658.747054 377,669 C276.636064,669 201.677936,669 152.125617,669 C118.45989,669 68.0846846,669 1,669 L1,549 Z" id="Path-4" fill="#2E9F60"></path>
            </g>
        </g>
    </g>
</svg>