<?xml version="1.0" encoding="UTF-8"?>
<svg width="375px" height="667px" viewBox="0 0 375 667" version="1.1" xmlns="http://www.w3.org/2000/svg" xmlns:xlink="http://www.w3.org/1999/xlink">
    <!-- Generator: Sketch 53.2 (72643) - https://sketchapp.com -->
    <title>Background Copy 2</title>
    <desc>Created with Sketch.</desc>
    <g id="Authentication" stroke="none" stroke-width="1" fill="none" fill-rule="evenodd">
        <g id="Sign-up">
            <g id="Background-Copy-2" transform="translate(0.000000, -2.000000)">
                <path d="M211,124.114245 C260.529499,150.265074 319.287232,174.844489 376,161.018088 L375,0 L211,20 L211,124.114245 Z" id="Path-3" fill="#755050"></path>
                <path d="M0.996013936,124.593069 C2.92649602,125.112703 33.4810375,136.211029 41.9141159,139.011826 C48.1494573,140.60334 68.3849845,147.433665 89.1460488,151.492234 C99.7246422,153.560237 121.701656,156.729554 141.387703,157 C142.958102,156.811732 158.298827,157.445267 172.435621,155.710425 C185.081761,154.158515 196.764479,150.208922 196.764479,150.208922 C206.303696,147.152575 213.916679,141.311165 216.266946,138.837501 C222.015772,132.786842 221.62722,124.593069 221.62722,124.593069 C222.174714,123.148155 218.910021,114.064252 218.527649,104.755026 C218.188741,96.5039675 221.539139,88.0758996 224.478545,84.6328604 C227.340967,81.2799962 235.568055,72.361603 244.851322,66.8269538 C255.8565,60.2657079 267.941718,57.2437665 268.611,56.6747727 C297.975997,43.6919592 372,39.2707366 372,2 L366.406039,2 L0,2 L0.996013936,124.593069 Z" id="Path-2" fill="#A7C89A"></path>
                <path d="M0,76 C63.106518,71.9377818 70.6306546,35.5988084 122.894712,18.1891776 C140.911847,12.1875066 176.753659,14.6176929 191.502892,12.3465051 C201.155542,10.8601242 219.966325,4.64357906 229,1 L0,1 L0,76 Z" id="Path" fill="#3B3939"></path>
                <path d="M0,549 C3.02762816,549.926738 9.41058123,555.969391 13.6637728,566.765839 C16.8347654,574.815196 17.3291869,604.719613 23.3812802,618.387 C26.5164414,625.467106 33.6738741,638.448124 45.0318793,645.099885 C59.013052,653.287892 67,655.742124 67,655.742124 C126.515184,675.524741 203.63779,669.500974 265.843155,662.890331 C304.830894,658.747054 340.125213,658.747054 376,669 C275.636064,669 200.677936,669 151.125617,669 C117.45989,669 67.0846846,669 0,669 L0,549 Z" id="Path-4" fill="#2E9F60"></path>
            </g>
        </g>
    </g>
</svg>