<?xml version="1.0" encoding="UTF-8"?>
<svg width="20px" height="20px" viewBox="0 0 20 20" version="1.1" xmlns="http://www.w3.org/2000/svg" xmlns:xlink="http://www.w3.org/1999/xlink">
    <!-- Generator: Sketch 53.2 (72643) - https://sketchapp.com -->
    <title>001-plus-positive-add-mathematical-symbol</title>
    <desc>Created with Sketch.</desc>
    <g id="Conversation" stroke="none" stroke-width="1" fill="none" fill-rule="evenodd">
        <g id="Task" transform="translate(-335.000000, -47.000000)" fill="#AEAEAE" fill-rule="nonzero">
            <g id="001-plus-positive-add-mathematical-symbol" transform="translate(335.000000, 47.000000)">
                <path d="M18.8007952,8.80058143 L11.0228512,8.82409525 L11.0228512,1.19920481 C11.0228512,0.534832517 10.4880186,0 9.82364635,0 C9.15948783,0 8.62444155,0.534832517 8.62444155,1.19920481 L8.64795537,8.80079519 L1.19920481,8.80079519 C0.534832517,8.80079519 0,9.33562771 0,10 C0,10.6641585 0.534832517,11.198991 1.19920481,11.198991 L8.63619846,11.198991 L8.63619846,18.8007952 C8.63619846,19.46474 9.17103097,20 9.83540326,20 C10.4997755,20 11.0346081,19.46474 11.0346081,18.8007952 L11.0346081,11.1992048 L18.8007952,11.1992048 C19.4651675,11.1992048 20,10.6639448 20,10 C20,9.33541395 19.4591821,8.80058143 18.8007952,8.80058143 Z" id="Path"></path>
            </g>
        </g>
    </g>
</svg>