<?xml version="1.0" encoding="UTF-8"?>
<svg width="25px" height="24px" viewBox="0 0 25 24" version="1.1" xmlns="http://www.w3.org/2000/svg" xmlns:xlink="http://www.w3.org/1999/xlink">
    <!-- Generator: Sketch 53.2 (72643) - https://sketchapp.com -->
    <title>004-add-user</title>
    <desc>Created with Sketch.</desc>
    <g id="Conversation" stroke="none" stroke-width="1" fill="none" fill-rule="evenodd">
        <g id="Menu-Leader" transform="translate(-18.000000, -224.000000)" fill="#AEAEAE" fill-rule="nonzero">
            <g id="Group-Copy-2" transform="translate(18.000000, 224.000000)">
                <g id="004-add-user">
                    <path d="M19.0766951,12.5888638 C17.4478967,12.5833507 15.8898132,13.2293521 14.7747076,14.3728264 C13.1708278,13.1404944 11.1781848,12.472603 9.12644441,12.4800618 L9.11028102,12.4800618 C6.64435375,12.4850884 4.35605537,13.4082023 2.66007793,15.0882276 C0.936993114,16.7839812 -0.00519786949,19.1017382 2.15695393e-05,21.6166683 C0.00103178146,21.7543327 0.0570985538,21.8859977 0.15626768,21.9847464 C0.25745723,22.08236 0.39518281,22.13668 0.538464544,22.1352206 L14.6723395,22.1092767 C14.7046663,22.1455981 14.7368247,22.1767307 14.7693198,22.2130521 C16.6249108,24.1043573 19.5745612,24.5466997 21.9396357,23.288586 C24.3047101,22.0303102 25.4863214,19.3905255 24.8120049,16.8707309 C24.1376884,14.3509363 21.7786753,12.5896745 19.0766951,12.5888638 Z M1.09307087,21.0929272 C1.2062146,19.0550393 2.02465461,17.1935694 3.42985942,15.8091418 C4.92143733,14.3313163 6.94051422,13.5171664 9.11028102,13.5171664 L9.12644441,13.5171664 C10.9374176,13.5103562 12.6965333,14.0992812 14.1123453,15.1868141 C12.9194534,16.96121 12.8408253,19.2249714 13.9077775,21.0723343 L1.09307087,21.0929272 Z M19.0766951,22.959748 C16.400307,22.959748 14.2308769,20.8702967 14.2308769,18.2927771 C14.2308769,15.7155818 16.400307,13.6259684 19.0766951,13.6259684 C21.7530832,13.6259684 23.9225133,15.7155818 23.9225133,18.2927771 C23.9225133,20.8702967 21.7530832,22.959748 19.0766951,22.959748 L19.0766951,22.959748 Z" id="Shape"></path>
                    <path d="M9.49999998,11.52 C12.5375126,11.52 15,8.94114221 15,5.76008519 C15,2.57885778 12.5375126,0 9.49999998,0 C6.46248741,0 4,2.57885778 4,5.76008519 C4.0029288,8.93977899 6.4636264,11.5169327 9.49999998,11.52 Z M9.49999998,1.08988861 C11.9629756,1.08988861 13.9592923,3.18088662 13.9592923,5.76008519 C13.9592923,8.33911337 11.9629756,10.4301113 9.49999998,10.4301113 C7.03718713,10.4301113 5.04070765,8.33911337 5.04070765,5.76008519 C5.04363645,3.18207944 7.03832612,1.09312625 9.49999998,1.08988861 Z" id="Shape"></path>
                    <path d="M21.505093,17.6695997 L19.9951392,17.6695997 L19.9951392,15.9303111 C19.9951392,15.6151955 19.7734605,15.36 19.5000774,15.36 C19.2266943,15.36 19.0050156,15.6151955 19.0050156,15.9303111 L19.0050156,17.6695997 L17.4950618,17.6695997 C17.2216787,17.6695997 17,17.9249735 17,18.2399108 C17,18.5550265 17.2216787,18.810222 17.4950618,18.810222 L19.0050156,18.810222 L19.0050156,20.5496888 C19.0050156,20.8646261 19.2266943,21.12 19.5000774,21.12 C19.7734605,21.12 19.9951392,20.8646261 19.9951392,20.5496888 L19.9951392,18.810222 L21.505093,18.810222 C21.7784761,18.810222 22,18.5550265 22,18.2399108 C22,17.9249735 21.7784761,17.6695997 21.505093,17.6695997 L21.505093,17.6695997 Z" id="Path"></path>
                </g>
            </g>
        </g>
    </g>
</svg>