<?xml version="1.0" encoding="UTF-8"?>
<svg width="22px" height="16px" viewBox="0 0 22 16" version="1.1" xmlns="http://www.w3.org/2000/svg" xmlns:xlink="http://www.w3.org/1999/xlink">
    <!-- Generator: Sketch 53.2 (72643) - https://sketchapp.com -->
    <title>previous</title>
    <desc>Created with Sketch.</desc>
    <g id="Conversation" stroke="none" stroke-width="1" fill="none" fill-rule="evenodd">
        <g transform="translate(-20.000000, -47.000000)" fill="#AEAEAE" fill-rule="nonzero" id="previous">
            <g transform="translate(20.000000, 47.000000)">
                <path d="M22,7.9999939 C22,8.63117367 21.4905319,9.14284597 20.8620711,9.14284597 L4.95799764,9.14284597 L3.82006875,7.9999939 L4.95799764,6.85714184 L20.8620711,6.85714184 C21.4905319,6.85714184 22,7.36881413 22,7.9999939 Z M8.77020166,15.6652456 C8.9836174,15.4509175 9.10351405,15.1602197 9.10351405,14.8571063 C9.10351405,14.5539929 8.9836174,14.2632951 8.77020166,14.048967 L2.74723887,7.9999939 L8.77020166,1.95102078 C9.21460198,1.50469778 9.21460198,0.781065237 8.77020166,0.334742244 C8.32580134,-0.111580748 7.60528605,-0.111580748 7.16088573,0.334742244 L0.333312388,7.19185463 C0.119896642,7.40618266 0,7.69688048 0,7.9999939 C0,8.30310732 0.119896642,8.59380514 0.333312388,8.80813317 L7.16088573,15.6652456 C7.37429047,15.8795846 7.66373603,16 7.96554369,16 C8.26735136,16 8.55679691,15.8795846 8.77020166,15.6652456 Z" id="Shape"></path>
            </g>
        </g>
    </g>
</svg>