<?xml version="1.0" encoding="UTF-8"?>
<svg width="20px" height="25px" viewBox="0 0 20 25" version="1.1" xmlns="http://www.w3.org/2000/svg" xmlns:xlink="http://www.w3.org/1999/xlink">
    <!-- Generator: Sketch 53.2 (72643) - https://sketchapp.com -->
    <title>Shape</title>
    <desc>Created with Sketch.</desc>
    <g id="Conversation" stroke="none" stroke-width="1" fill="none" fill-rule="evenodd">
        <g id="Home" transform="translate(-20.000000, -43.000000)" fill="#AEAEAE" fill-rule="nonzero">
            <g id="001-bell" transform="translate(20.000000, 43.000000)">
                <path d="M19.5870917,19.895166 C19.5127948,19.8474609 18.9536175,19.4600098 18.3936998,18.2878906 C17.3654397,16.1354492 17.1496082,13.1033203 17.1496082,10.9387207 C17.1496082,10.9292969 17.1494108,10.9199707 17.1490652,10.9105957 C17.1378589,8.04980469 15.4059251,5.58369141 12.9275166,4.47719727 L12.9275166,2.78496094 C12.9275166,1.24931641 11.6664922,0 10.1164748,0 L9.88351312,0 C8.33349577,0 7.0724714,1.24931641 7.0724714,2.78496094 L7.0724714,4.47709961 C4.58576925,5.5871582 2.85037973,8.06586914 2.85037973,10.9387207 C2.85037973,13.1033203 2.63454828,16.1354004 1.60628816,18.2878906 C1.04641979,19.4599609 0.487242568,19.8474121 0.412896236,19.895166 C0.0998122798,20.0384766 -0.054557561,20.3695312 0.0174685336,20.7050293 C0.0901857627,21.0438477 0.410378531,21.2774414 0.760043252,21.2774414 L6.18776979,21.2774414 C6.21808098,23.3351074 7.91600113,25 10.0000187,25 C12.0840362,25 13.7819563,23.3351074 13.8122675,21.2774414 L19.2399941,21.2774414 C19.5896094,21.2774414 19.9098516,21.0438477 19.9825688,20.7050293 C20.0544962,20.3695312 19.9001757,20.0384277 19.5870917,19.895166 Z M8.55352339,2.78496094 C8.55352339,2.05834961 9.15016999,1.46723633 9.88356249,1.46723633 L10.1165242,1.46723633 C10.8499167,1.46723633 11.4465633,2.05834961 11.4465633,2.78496094 L11.4465633,4.00161133 C10.9791589,3.90605469 10.4953153,3.85576172 9.9998212,3.85576172 C9.50447518,3.85576172 9.02077972,3.90600586 8.55357276,4.00146484 L8.55357276,2.78496094 L8.55352339,2.78496094 Z M10.0000187,23.5327637 C8.73262598,23.5327637 7.69883678,22.5260742 7.66877242,21.2774902 L12.3312155,21.2774902 C12.3012006,22.5260254 11.2674113,23.5327637 10.0000187,23.5327637 L10.0000187,23.5327637 Z M12.9817706,19.8101562 C12.9816225,19.8101562 2.44764575,19.8101562 2.44764575,19.8101562 C2.57575248,19.6126953 2.70613008,19.3891113 2.83571781,19.1364258 C3.82818704,17.2007324 4.33143173,14.442627 4.33143173,10.9387207 C4.33143173,7.8421875 6.87426388,5.32299805 9.99977183,5.32299805 C13.1252798,5.32299805 15.6681119,7.8421875 15.6681119,10.9411621 C15.6681119,10.9501953 15.66826,10.9591797 15.6686056,10.9681641 C15.6714195,14.4580078 16.1746148,17.2062012 17.1643195,19.1364258 C17.2939073,19.3891602 17.4243342,19.6126953 17.5523916,19.8101562 L12.9817706,19.8101562 Z" id="Shape"></path>
            </g>
        </g>
    </g>
</svg>