<?xml version="1.0" encoding="UTF-8"?>
<svg width="23px" height="18px" viewBox="0 0 23 18" version="1.1" xmlns="http://www.w3.org/2000/svg" xmlns:xlink="http://www.w3.org/1999/xlink">
    <!-- Generator: Sketch 53.2 (72643) - https://sketchapp.com -->
    <title>001-camera</title>
    <desc>Created with Sketch.</desc>
    <g id="Conversation" stroke="none" stroke-width="1" fill="none" fill-rule="evenodd">
        <g id="Conversation-Attach" transform="translate(-177.000000, -612.000000)" fill="#0DBB59" fill-rule="nonzero">
            <g id="Camera" transform="translate(165.000000, 599.000000)">
                <g id="001-camera" transform="translate(12.000000, 13.000000)">
                    <path d="M22.2347909,2.80434783 C21.7756654,2.32608696 21.141635,2.04347826 20.4201521,2.04347826 L16.7908745,2.04347826 L16.7908745,2 C16.7908745,1.45652174 16.5722433,0.934782609 16.2005703,0.586956522 C15.8288973,0.217391304 15.3260456,0 14.7794677,0 L8.22053232,0 C7.65209125,0 7.14923954,0.217391304 6.77756654,0.586956522 C6.40589354,0.956521739 6.18726236,1.45652174 6.18726236,2 L6.18726236,2.04347826 L2.57984791,2.04347826 C1.85836502,2.04347826 1.2243346,2.32608696 0.765209125,2.80434783 C0.30608365,3.26086957 0,3.91304348 0,4.60869565 L0,15.4347826 C-1.55346796e-15,16.1521739 0.284220532,16.7826087 0.765209125,17.2391304 C1.2243346,17.6956522 1.88022814,18 2.57984791,18 L20.4201521,18 C21.141635,18 21.7756654,17.7173913 22.2347909,17.2391304 C22.6939163,16.7826087 23,16.1304348 23,15.4347826 L23,4.60869565 C23,3.89130435 22.7157795,3.26086957 22.2347909,2.80434783 Z M21.8631179,15.4347826 L21.8412548,15.4347826 C21.8412548,15.826087 21.6882129,16.173913 21.4258555,16.4347826 C21.1634981,16.6956522 20.8136882,16.8478261 20.4201521,16.8478261 L2.57984791,16.8478261 C2.18631179,16.8478261 1.8365019,16.6956522 1.57414449,16.4347826 C1.31178707,16.173913 1.15874525,15.826087 1.15874525,15.4347826 L1.15874525,4.60869565 C1.15874525,4.2173913 1.31178707,3.86956522 1.57414449,3.60869565 C1.8365019,3.34782609 2.18631179,3.19565217 2.57984791,3.19565217 L6.79942966,3.19565217 C7.12737643,3.19565217 7.38973384,2.93478261 7.38973384,2.60869565 L7.38973384,1.97826087 C7.38973384,1.73913043 7.47718631,1.52173913 7.63022814,1.36956522 C7.78326996,1.2173913 8.00190114,1.13043478 8.24239544,1.13043478 L14.7794677,1.13043478 C15.019962,1.13043478 15.2385932,1.2173913 15.391635,1.36956522 C15.5446768,1.52173913 15.6321293,1.73913043 15.6321293,1.97826087 L15.6321293,2.60869565 C15.6321293,2.93478261 15.8944867,3.19565217 16.2224335,3.19565217 L20.4420152,3.19565217 C20.8355513,3.19565217 21.1853612,3.34782609 21.4477186,3.60869565 C21.710076,3.86956522 21.8631179,4.2173913 21.8631179,4.60869565 L21.8631179,15.4347826 Z" id="Shape"></path>
                    <path d="M11.5,4 C9.9796748,4 8.59349593,4.62601626 7.6097561,5.6097561 C6.60365854,6.61585366 6,7.9796748 6,9.5 C6,11.0203252 6.62601626,12.4065041 7.6097561,13.3902439 C8.61585366,14.3963415 9.9796748,15 11.5,15 C13.0203252,15 14.4065041,14.3739837 15.3902439,13.3902439 C16.3963415,12.3841463 17,11.0203252 17,9.5 C17,7.9796748 16.3739837,6.59349593 15.3902439,5.6097561 C14.4065041,4.62601626 13.0203252,4 11.5,4 Z M14.5406504,12.5630081 C13.7581301,13.3231707 12.6849593,13.8150407 11.5,13.8150407 C10.3150407,13.8150407 9.24186992,13.3231707 8.45934959,12.5630081 C7.67682927,11.7804878 7.20731707,10.7073171 7.20731707,9.52235772 C7.20731707,8.33739837 7.69918699,7.26422764 8.45934959,6.48170732 C9.24186992,5.69918699 10.3150407,5.2296748 11.5,5.2296748 C12.6849593,5.2296748 13.7581301,5.72154472 14.5406504,6.48170732 C15.3231707,7.26422764 15.7926829,8.33739837 15.7926829,9.52235772 C15.8150407,10.7073171 15.3231707,11.7804878 14.5406504,12.5630081 Z" id="Shape"></path>
                    <circle id="Oval" cx="19" cy="6" r="1"></circle>
                </g>
            </g>
        </g>
    </g>
</svg>