<?xml version="1.0" encoding="UTF-8"?>
<svg width="22px" height="22px" viewBox="0 0 22 22" version="1.1" xmlns="http://www.w3.org/2000/svg" xmlns:xlink="http://www.w3.org/1999/xlink">
    <!-- Generator: Sketch 53.2 (72643) - https://sketchapp.com -->
    <title>001-cancel</title>
    <desc>Created with Sketch.</desc>
    <g id="Conversation" stroke="none" stroke-width="1" fill="none" fill-rule="evenodd">
        <g id="Menu-Leader" transform="translate(-16.000000, -278.000000)" fill="#AEAEAE" fill-rule="nonzero">
            <g id="Group-Copy-3" transform="translate(16.000000, 278.000000)">
                <g id="001-cancel">
                    <path d="M11,0 C4.9347173,0 0,4.9347173 0,11 C0,17.0652827 4.9347173,22 11,22 C17.0652827,22 22,17.0652827 22,11 C22,4.9347173 17.0653275,0 11,0 Z M11,21.0434919 C5.46173161,21.0434919 0.956508093,16.5382684 0.956508093,11 C0.956508093,5.46173161 5.46173161,0.956508093 11,0.956508093 C16.5382684,0.956508093 21.0434919,5.46173161 21.0434919,11 C21.0434919,16.5382684 16.5382684,21.0434919 11,21.0434919 Z" id="Shape"></path>
                    <path d="M15.6984231,15.0142064 L6.98600113,6.30158018 C6.79723199,6.11280661 6.490346,6.11280661 6.30157686,6.30158018 C6.11280771,6.49035374 6.11280771,6.79724693 6.30157686,6.9860205 L15.0139989,15.6986467 C15.1088826,15.7925343 15.2327623,15.84 15.3566875,15.84 C15.4806126,15.84 15.6044923,15.7925797 15.6984231,15.6986467 C15.8871923,15.5098278 15.8871923,15.20298 15.6984231,15.0142064 Z" id="Path"></path>
                    <path d="M15.6984231,6.30158018 C15.509654,6.11280661 15.202768,6.11280661 15.0139989,6.30158018 L6.30157686,15.0142064 C6.11280771,15.20298 6.11280771,15.5098731 6.30157686,15.6986467 C6.39646058,15.7925343 6.52034033,15.84 6.64426546,15.84 C6.76819058,15.84 6.89207033,15.7925797 6.98600113,15.6986467 L15.6984231,6.9860205 C15.8871923,6.79720155 15.8871923,6.49035374 15.6984231,6.30158018 Z" id="Path"></path>
                </g>
            </g>
        </g>
    </g>
</svg>