<?xml version="1.0" encoding="UTF-8"?>
<svg width="16px" height="16px" viewBox="0 0 16 16" version="1.1" xmlns="http://www.w3.org/2000/svg" xmlns:xlink="http://www.w3.org/1999/xlink">
    <!-- Generator: Sketch 53.2 (72643) - https://sketchapp.com -->
    <title>001-verified</title>
    <desc>Created with Sketch.</desc>
    <g id="Conversation" stroke="none" stroke-width="1" fill="none" fill-rule="evenodd">
        <g id="Select-member" transform="translate(-333.000000, -261.000000)" fill="#2E9F60" fill-rule="nonzero">
            <g id="User" transform="translate(16.000000, 245.000000)">
                <g id="001-verified" transform="translate(317.000000, 16.000000)">
                    <path d="M13.6568438,2.343125 C12.1458437,0.83215625 10.136875,0 8,0 C5.86309375,0 3.854125,0.83215625 2.343125,2.343125 C0.83215625,3.854125 0,5.863125 0,8 C0,10.136875 0.83215625,12.1458438 2.343125,13.6568438 C3.854125,15.1678437 5.863125,16 8,16 C10.136875,16 12.1458438,15.1678437 13.6568438,13.656875 C15.1678437,12.1458437 16,10.136875 16,8 C16,5.863125 15.1678437,3.85415625 13.6568438,2.343125 Z M11.8220625,6.09603125 L7.35128125,10.5668438 C7.25975,10.658375 7.13978125,10.704125 7.01984375,10.704125 C6.899875,10.704125 6.77990625,10.658375 6.688375,10.5668438 L4.1779375,8.0564375 C3.994875,7.87340625 3.994875,7.576625 4.1779375,7.39353125 C4.36096875,7.21046875 4.65778125,7.21046875 4.84084375,7.39353125 L7.01984375,9.5725 L11.1591563,5.433125 C11.3421875,5.2500625 11.639,5.2500625 11.8220625,5.433125 C12.005125,5.6161875 12.005125,5.91296875 11.8220625,6.09603125 Z" id="Shape"></path>
                </g>
            </g>
        </g>
    </g>
</svg>