<?xml version="1.0" encoding="UTF-8"?>
<svg width="16px" height="16px" viewBox="0 0 16 16" version="1.1" xmlns="http://www.w3.org/2000/svg" xmlns:xlink="http://www.w3.org/1999/xlink">
    <!-- Generator: Sketch 53.2 (72643) - https://sketchapp.com -->
    <title>001-cancel</title>
    <desc>Created with Sketch.</desc>
    <g id="Conversation" stroke="none" stroke-width="1" fill="none" fill-rule="evenodd">
        <g id="Create-conversation" transform="translate(-333.000000, -218.000000)" fill-rule="nonzero">
            <g id="User" transform="translate(16.000000, 202.000000)">
                <g id="001-cancel" transform="translate(317.000000, 16.000000)">
                    <circle id="Oval" fill="#E24C4B" cx="8" cy="8" r="8"></circle>
                    <path d="M16,8.14032906 C16,12.463155 12.4631637,16 8.14034845,16 C5.63510093,16 3.42457825,14.8701783 2,13.0526407 C3.32631361,14.1333471 5.0456167,14.771948 6.91226495,14.771948 C11.2350802,14.771948 14.7719165,11.235103 14.7719165,6.91227707 C14.7719165,5.04562422 14.1333172,3.32631688 13.0526134,2 C14.8701811,3.42451268 16,5.63504082 16,8.14032906 Z" id="Path" fill="#D1403F"></path>
                    <path d="M11.76775,11.76775 C11.4580834,12.0774167 10.9419239,12.0774167 10.6322572,11.76775 L8,9.13549277 L5.36774275,11.76775 C5.05807611,12.0774167 4.54191664,12.0774167 4.23224999,11.76775 C3.92258334,11.4580834 3.92258334,10.9419239 4.23224999,10.6322572 L6.86450723,8 L4.23224999,5.36774275 C3.92258334,5.05807611 3.92258334,4.54191664 4.23224999,4.23224999 C4.54191664,3.92258334 5.05807611,3.92258334 5.36774275,4.23224999 L8,6.86450723 L10.6322572,4.23224999 C10.9419239,3.92258334 11.4580834,3.92258334 11.76775,4.23224999 C12.0774167,4.54191664 12.0774167,5.05807611 11.76775,5.36774275 L9.13549277,8 L11.76775,10.6322572 C12.0774167,10.9419239 12.0774167,11.4580471 11.76775,11.76775 Z" id="Path" fill="#FFFFFF"></path>
                </g>
            </g>
        </g>
    </g>
</svg>