<?xml version="1.0" encoding="UTF-8"?>
<svg width="20px" height="20px" viewBox="0 0 20 20" version="1.1" xmlns="http://www.w3.org/2000/svg" xmlns:xlink="http://www.w3.org/1999/xlink">
    <!-- Generator: Sketch 53.2 (72643) - https://sketchapp.com -->
    <title>003-accept</title>
    <desc>Created with Sketch.</desc>
    <g id="Conversation" stroke="none" stroke-width="1" fill="none" fill-rule="evenodd">
        <g id="Task" transform="translate(-27.000000, -309.000000)" fill="#2E9F60" fill-rule="nonzero">
            <g id="Task-done" transform="translate(15.000000, 233.000000)">
                <g id="Progress" transform="translate(12.000000, 18.000000)">
                    <g id="003-accept" transform="translate(0.000000, 58.000000)">
                        <path d="M10.002262,0 C4.49366646,0 0.012353853,4.48131265 0.012353853,9.99008214 C0.012353853,15.4986776 4.49366646,19.9801643 10.002262,19.9801643 C15.5106835,19.9801643 19.9919961,15.4986776 19.9919961,9.99008214 C19.9919961,4.48131265 15.5106835,0 10.002262,0 Z M10.002262,19.1656807 C4.94292873,19.1656807 0.826837416,15.0492414 0.826837416,9.99008214 C0.826837416,4.93074886 4.94292873,0.814483563 10.002262,0.814483563 C15.0614212,0.814483563 19.1775125,4.93074886 19.1775125,9.99008214 C19.1775125,15.0492414 15.0614212,19.1656807 10.002262,19.1656807 Z" id="Shape"></path>
                        <path d="M15.1616439,6.0065771 L8.05835884,13.1096882 L4.84270601,9.89420935 C4.68367207,9.73517541 4.42598134,9.73517541 4.26677336,9.89420935 C4.10773942,10.0532433 4.10773942,10.310934 4.26677336,10.470142 L7.77039252,13.9735871 C7.84990953,14.0531041 7.95413416,14.0927756 8.05835884,14.0927756 C8.16258352,14.0927756 8.2668082,14.0531041 8.34632517,13.9735871 L15.7375766,6.58250976 C15.8966105,6.42347577 15.8966105,6.16561109 15.7375766,6.0065771 C15.5785426,5.84754316 15.3206779,5.84754316 15.1616439,6.0065771 Z" id="Path"></path>
                    </g>
                </g>
            </g>
        </g>
    </g>
</svg>