<?xml version="1.0" encoding="UTF-8"?>
<svg width="373px" height="336px" viewBox="0 0 373 336" version="1.1" xmlns="http://www.w3.org/2000/svg" xmlns:xlink="http://www.w3.org/1999/xlink">
    <!-- Generator: Sketch 53.2 (72643) - https://sketchapp.com -->
    <title>empty</title>
    <desc>Created with Sketch.</desc>
    <g id="Conversation" stroke="none" stroke-width="1" fill="none" fill-rule="evenodd">
        <g id="Draft" transform="translate(-1.000000, -71.000000)" fill-rule="nonzero">
            <g id="empty" transform="translate(1.000000, 71.000000)">
                <path d="M362.583333,192.614583 C323.1875,132.291667 327.375,70.4583333 308.385417,41.3854167 C289.395833,12.3125 232.802083,-37.8125 99.0833333,49.53125 C-34.6354167,136.875 -0.625,231.822917 20.2708333,263.791667 C118.0625,413.5 432.364583,299.447917 362.583333,192.614583 Z" id="Path" fill="#EFEFEF"></path>
                <path d="M303.6875,175.895833 L303.6875,243.604167 C303.6875,255.0625 294.3125,264.4375 282.854167,264.4375 L90.1458333,264.4375 C78.6875,264.4375 69.3125,255.0625 69.3125,243.604167 L69.3125,175.895833 L108.479167,175.895833 C113.0625,175.895833 117.125,178.916667 118.375,183.291667 L129.625,220.583333 C130.875,224.958333 134.9375,227.979167 139.520833,227.979167 L233.479167,227.979167 C238.0625,227.979167 242.125,224.958333 243.375,220.583333 L254.625,183.291667 C255.875,178.916667 259.9375,175.895833 264.520833,175.895833 L303.6875,175.895833 Z" id="Path" fill="#F3F3F1"></path>
                <path d="M303.6875,175.895833 L264.520833,175.895833 C259.9375,175.895833 255.875,178.916667 254.625,183.291667 L243.375,220.583333 C242.125,224.958333 238.0625,227.979167 233.479167,227.979167 L139.520833,227.979167 C134.9375,227.979167 130.875,224.958333 129.625,220.583333 L118.375,183.291667 C117.125,178.916667 113.0625,175.895833 108.479167,175.895833 L69.3125,175.895833 L116.1875,71.7291667 L256.8125,71.7291667 L303.6875,175.895833 Z" id="Path" fill="#EFEFEF"></path>
                <path d="M266.8125,220.583333 L278.0625,183.291667 C279.3125,178.916667 283.375,175.895833 287.958333,175.895833 L264.520833,175.895833 C259.9375,175.895833 255.875,178.916667 254.625,183.291667 L243.375,220.583333 C242.125,224.958333 238.0625,227.979167 233.479167,227.979167 L256.916667,227.979167 C261.5,227.979167 265.5625,224.958333 266.8125,220.583333 Z" id="Path" fill="#D5DBE1"></path>
                <path d="M92.75,243.604167 L92.75,175.895833 L69.3125,175.895833 L69.3125,243.604167 C69.3125,255.0625 78.6875,264.4375 90.1458333,264.4375 L113.583333,264.4375 C102.125,264.4375 92.75,255.0625 92.75,243.604167 Z" id="Path" fill="#D5DBE1"></path>
                <polygon id="Path" fill="#D5DBE1" points="116.1875 71.7291667 69.3125 175.895833 92.75 175.895833 139.625 71.7291667"></polygon>
                <path d="M153.0625,220.583333 L141.8125,183.291667 C140.5625,178.916667 136.5,175.895833 131.916667,175.895833 L108.479167,175.895833 C113.0625,175.895833 117.125,178.916667 118.375,183.291667 L129.625,220.583333 C130.875,224.958333 134.9375,227.979167 139.520833,227.979167 L162.958333,227.979167 C158.375,227.979167 154.3125,224.958333 153.0625,220.583333 Z" id="Path" fill="#D5DBE1"></path>
                <g id="Group" transform="translate(61.500000, 11.833333)" fill="#A4AFC1">
                    <path d="M226.5,36.4583333 C217.885417,36.4583333 210.875,29.4479167 210.875,20.8333333 C210.875,12.21875 217.885417,5.20833333 226.5,5.20833333 C235.114583,5.20833333 242.125,12.21875 242.125,20.8333333 C242.125,29.4479167 235.114583,36.4583333 226.5,36.4583333 Z M226.5,15.625 C223.625,15.625 221.291667,17.96875 221.291667,20.8333333 C221.291667,23.6979167 223.625,26.0416667 226.5,26.0416667 C229.375,26.0416667 231.708333,23.6979167 231.708333,20.8333333 C231.708333,17.96875 229.375,15.625 226.5,15.625 Z" id="Shape"></path>
                    <polygon id="Path" transform="translate(21.911937, 22.636208) rotate(-45.000000) translate(-21.911937, -22.636208) " points="16.7043907 12.2211147 27.1194843 12.2211147 27.1194843 33.051302 16.7043907 33.051302"></polygon>
                    <polygon id="Path" transform="translate(20.055854, 64.995667) rotate(-45.000000) translate(-20.055854, -64.995667) " points="9.64076054 59.7881199 30.4709478 59.7881199 30.4709478 70.2032135 9.64076054 70.2032135"></polygon>
                    <polygon id="Path" transform="translate(62.417385, 22.641177) rotate(-45.000000) translate(-62.417385, -22.641177) " points="52.0022918 17.4336303 72.832479 17.4336303 72.832479 27.8487239 52.0022918 27.8487239"></polygon>
                </g>
                <path d="M282.854167,272.25 L90.1458333,272.25 C74.34375,272.25 61.5,259.40625 61.5,243.604167 L61.5,175.895833 C61.5,174.791667 61.7291667,173.697917 62.1875,172.6875 L109.0625,68.5208333 C110.322917,65.71875 113.114583,63.9166667 116.1875,63.9166667 L256.8125,63.9166667 C259.885417,63.9166667 262.677083,65.71875 263.9375,68.5208333 L310.8125,172.6875 C311.270833,173.697917 311.5,174.791667 311.5,175.895833 L311.5,243.604167 C311.5,259.40625 298.65625,272.25 282.854167,272.25 Z M77.125,177.572917 L77.125,243.604167 C77.125,250.78125 82.96875,256.625 90.1458333,256.625 L282.854167,256.625 C290.03125,256.625 295.875,250.78125 295.875,243.604167 L295.875,177.572917 L251.760417,79.5416667 L121.239583,79.5416667 L77.125,177.572917 Z" id="Shape" fill="#A4AFC1"></path>
                <path d="M233.4375,235.791667 L139.5625,235.791667 C131.458333,235.791667 124.4375,230.572917 122.104167,222.802083 L110.927083,185.572917 C110.59375,184.479167 109.572917,183.708333 108.4375,183.708333 L69.3125,183.708333 L69.3125,168.083333 L108.4375,168.083333 C116.541667,168.083333 123.5625,173.302083 125.895833,181.072917 L137.072917,218.302083 C137.40625,219.40625 138.427083,220.166667 139.5625,220.166667 L233.4375,220.166667 C234.572917,220.166667 235.604167,219.40625 235.927083,218.302083 L247.104167,181.072917 C249.4375,173.302083 256.447917,168.083333 264.5625,168.083333 L303.6875,168.083333 L303.6875,183.708333 L264.5625,183.708333 C263.427083,183.708333 262.395833,184.46875 262.072917,185.572917 L250.895833,222.802083 C248.5625,230.572917 241.541667,235.791667 233.4375,235.791667 L233.4375,235.791667 Z" id="Path" fill="#A4AFC1"></path>
                <polygon id="Path" fill="#A4AFC1" points="19.8333333 256.625 353.166667 256.625 353.166667 272.25 19.8333333 272.25"></polygon>
            </g>
        </g>
    </g>
</svg>