<?xml version="1.0" encoding="UTF-8"?>
<svg width="375px" height="284px" viewBox="0 0 375 284" version="1.1" xmlns="http://www.w3.org/2000/svg" xmlns:xlink="http://www.w3.org/1999/xlink">
    <!-- Generator: Sketch 53.2 (72643) - https://sketchapp.com -->
    <title>error2</title>
    <desc>Created with Sketch.</desc>
    <g id="Conversation" stroke="none" stroke-width="1" fill="none" fill-rule="evenodd">
        <g id="Draft" transform="translate(0.000000, -383.000000)" fill-rule="nonzero">
            <g id="error2" transform="translate(0.000000, 383.000000)">
                <g id="Group">
                    <path d="M375,7.79150391 L375,276.388184 C375,280.553467 371.619873,283.933594 367.45459,283.933594 L7.54541016,283.933594 C3.38012695,283.933594 -3.55271368e-14,280.553467 -3.55271368e-14,276.388184 L-3.55271368e-14,7.79150391 C-3.55271368e-14,3.6262207 3.38012695,0.24609375 7.54541016,0.24609375 L367.45459,0.24609375 C371.619873,0.24609375 375,3.6262207 375,7.79150391 Z" id="Path" fill="#E8E6ED"></path>
                    <path d="M375,7.79150391 L375,276.388184 C375,280.553467 371.619873,283.933594 367.45459,283.933594 L277.077393,283.933594 C360.558105,211.672852 358.702148,43.654541 356.732666,0.246826172 L367.45459,0.246826172 C371.619873,0.24609375 375,3.6262207 375,7.79150391 Z" id="Path" fill="#D1D0D8"></path>
                    <path d="M375,7.79150391 L375,47.8044434 L0,47.8044434 L0,7.79150391 C0,3.6262207 3.38012695,0.24609375 7.54541016,0.24609375 L367.45459,0.24609375 C371.619873,0.24609375 375,3.6262207 375,7.79150391 Z" id="Path" fill="#A4AFC1"></path>
                    <path d="M375,7.79150391 L375,47.8044434 L357.019775,47.8044434 C357.638672,27.0849609 357.193359,10.3117676 356.733398,0.246826053 L367.455322,0.246826172 C371.619873,0.24609375 375,3.6262207 375,7.79150391 Z" id="Path" fill="#D1D0D8"></path>
                    <g transform="translate(24.169922, 18.310547)" fill="#D1D0D8" id="Path">
                        <path d="M6.04614258,11.3752441 L5.96118164,11.3752441 C2.8359375,11.3752441 0.302490234,8.84179688 0.302490234,5.71655273 C0.302490234,2.59130859 2.8359375,0.0578613281 5.96118164,0.0578613281 L6.04614258,0.0578613281 C9.17138672,0.0578613281 11.704834,2.59130859 11.704834,5.71655273 C11.704834,8.84106445 9.17138672,11.3752441 6.04614258,11.3752441 Z"></path>
                        <path d="M23.1306152,11.3752441 L23.0456543,11.3752441 C19.9204102,11.3752441 17.3869629,8.84179688 17.3869629,5.71655273 C17.3869629,2.59130859 19.9204102,0.0578613281 23.0456543,0.0578613281 L23.1306152,0.0578613281 C26.2558594,0.0578613281 28.7893066,2.59130859 28.7893066,5.71655273 C28.7893066,8.84106445 26.2558594,11.3752441 23.1306152,11.3752441 Z"></path>
                        <path d="M40.2150879,11.3752441 L40.130127,11.3752441 C37.0048828,11.3752441 34.4714355,8.84179688 34.4714355,5.71655273 C34.4714355,2.59130859 37.0048828,0.0578613281 40.130127,0.0578613281 L40.2150879,0.0578613281 C43.340332,0.0578613281 45.8737793,2.59130859 45.8737793,5.71655273 C45.8745117,8.84106445 43.3410645,11.3752441 40.2150879,11.3752441 Z"></path>
                        <path d="M320.699707,11.3752441 L310.169678,11.3752441 C307.044434,11.3752441 304.510986,8.84179688 304.510986,5.71655273 C304.510986,2.59130859 307.044434,0.0578613281 310.169678,0.0578613281 L320.699707,0.0578613281 C323.824951,0.0578613281 326.358398,2.59130859 326.358398,5.71655273 C326.358398,8.84106445 323.824951,11.3752441 320.699707,11.3752441 Z"></path>
                    </g>
                </g>
                <g id="Group" transform="translate(132.568359, 75.439453)">
                    <path d="M109.694824,54.9521484 C109.694824,67.8918457 105.210205,79.7834473 97.7072754,89.1489258 C87.6708984,101.684326 72.239502,109.715332 54.932373,109.715332 C37.6252441,109.715332 22.1938477,101.685059 12.1574707,89.1489258 C4.65380859,79.7834473 0.169921875,67.8911133 0.169921875,54.9521484 C0.169921875,24.7053223 24.6862793,0.188964844 54.9331055,0.188964844 C85.1799316,0.188964844 109.694824,24.7053223 109.694824,54.9521484 L109.694824,54.9521484 Z" id="Path" fill="#A4AFC1"></path>
                    <path d="M109.694824,54.9521484 C109.694824,67.8918457 105.210205,79.7834473 97.7072754,89.1489258 C87.6708984,101.684326 72.239502,109.715332 54.932373,109.715332 C43.8691406,109.715332 33.5654297,106.436279 24.9594727,100.78125 C29.6147461,102.075439 34.5234375,102.766846 39.5895996,102.766846 C56.8967285,102.766846 72.328125,94.7365723 82.364502,82.2011719 C89.8681641,72.8356934 94.3520508,60.9433594 94.3520508,48.0043945 C94.3520508,28.8215332 84.4936523,11.9450684 69.5617676,2.16870117 C92.7026367,8.56201172 109.694824,29.7714844 109.694824,54.9521484 L109.694824,54.9521484 Z" id="Path" fill="#979FAC"></path>
                </g>
                <path d="M207.481934,209.755371 L167.518799,209.755371 C164.393555,209.755371 161.860107,207.221924 161.860107,204.09668 C161.860107,200.971436 164.393555,198.437988 167.518799,198.437988 L207.481934,198.437988 C210.607178,198.437988 213.140625,200.971436 213.140625,204.09668 C213.140625,207.221924 210.607178,209.755371 207.481934,209.755371 Z" id="Path" fill="#A4AFC1"></path>
                <g id="Group" transform="translate(88.623047, 236.572266)" fill="#AAAAB2">
                    <path d="M147.739746,11.526123 L6.30175781,11.526123 C3.17651367,11.526123 0.643066406,8.99267578 0.643066406,5.86743164 C0.643066406,2.7421875 3.17651367,0.208740234 6.30175781,0.208740234 L147.740479,0.208740234 C150.865723,0.208740234 153.39917,2.7421875 153.39917,5.86743164 C153.39917,8.99267578 150.86499,11.526123 147.739746,11.526123 Z" id="Path"></path>
                    <path d="M191.452148,11.526123 L170.714355,11.526123 C167.589111,11.526123 165.055664,8.99267578 165.055664,5.86743164 C165.055664,2.7421875 167.589111,0.208740234 170.714355,0.208740234 L191.452148,0.208740234 C194.577393,0.208740234 197.11084,2.7421875 197.11084,5.86743164 C197.111572,8.99267578 194.577393,11.526123 191.452148,11.526123 Z" id="Path"></path>
                    <path d="M51.4797363,28.7578125 L6.30102539,28.7578125 C3.17578125,28.7578125 0.642333984,26.2243652 0.642333984,23.0991211 C0.642333984,19.973877 3.17578125,17.4404297 6.30102539,17.4404297 L51.4797363,17.4404297 C54.6049805,17.4404297 57.1384277,19.973877 57.1384277,23.0991211 C57.1391602,26.2236328 54.6049805,28.7578125 51.4797363,28.7578125 Z" id="Path"></path>
                    <path d="M191.452148,28.7578125 L72.9455566,28.7578125 C69.8203125,28.7578125 67.2868652,26.2243652 67.2868652,23.0991211 C67.2868652,19.973877 69.8203125,17.4404297 72.9455566,17.4404297 L191.452148,17.4404297 C194.577393,17.4404297 197.11084,19.973877 197.11084,23.0991211 C197.111572,26.2236328 194.577393,28.7578125 191.452148,28.7578125 Z" id="Path"></path>
                </g>
                <path d="M195.503174,130.391602 L208.477295,117.41748 C210.687744,115.207764 210.687744,111.624756 208.477295,109.414307 C206.267578,107.20459 202.68457,107.20459 200.474121,109.414307 L187.5,122.38916 L174.525879,109.415039 C172.316162,107.205322 168.733154,107.205322 166.522705,109.415039 C164.312256,111.624756 164.312256,115.207764 166.522705,117.418213 L179.496826,130.392334 L166.522705,143.366455 C164.312256,145.576172 164.312256,149.15918 166.522705,151.369629 C167.62793,152.474854 169.075928,153.0271 170.523926,153.0271 C171.971924,153.0271 173.420654,152.474121 174.525146,151.369629 L187.5,138.394775 L200.474121,151.368896 C201.579346,152.474121 203.027344,153.026367 204.475342,153.026367 C205.92334,153.026367 207.37207,152.473389 208.476563,151.368896 C210.687012,149.15918 210.687012,145.576172 208.476563,143.365723 L195.503174,130.391602 Z" id="Path" fill="#E8E6ED"></path>
            </g>
        </g>
    </g>
</svg>