<svg height="512pt" viewBox="0 0 512 512" width="512pt" xmlns="http://www.w3.org/2000/svg"><path d="m362.667969 256c0 58.910156-47.757813 106.667969-106.667969 106.667969s-106.667969-47.757813-106.667969-106.667969 47.757813-106.667969 106.667969-106.667969 106.667969 47.757813 106.667969 106.667969zm0 0"/><path d="m490.667969 234.667969h-22.421875c-10.027344-100.628907-90.285156-180.886719-190.914063-190.914063v-22.421875c0-11.773437-9.535156-21.332031-21.332031-21.332031s-21.332031 9.558594-21.332031 21.332031v22.421875c-100.628907 10.027344-180.886719 90.285156-190.914063 190.914063h-22.421875c-11.796875 0-21.332031 9.554687-21.332031 21.332031s9.535156 21.332031 21.332031 21.332031h22.421875c10.046875 100.628907 90.285156 180.886719 190.914063 190.914063v22.421875c0 11.773437 9.535156 21.332031 21.332031 21.332031s21.332031-9.558594 21.332031-21.332031v-22.421875c100.628907-10.046875 180.886719-90.285156 190.914063-190.914063h22.421875c11.796875 0 21.332031-9.554687 21.332031-21.332031s-9.535156-21.332031-21.332031-21.332031zm-213.632813 190.570312c-.769531-11.074219-9.75-19.90625-21.035156-19.90625s-20.265625 8.832031-21.035156 19.90625c-77.269532-9.558593-138.625-70.914062-148.179688-148.183593 11.070313-.789063 19.882813-9.789063 19.882813-21.054688s-8.8125-20.265625-19.90625-21.035156c9.558593-77.269532 70.914062-138.625 148.183593-148.179688.789063 11.050782 9.769532 19.882813 21.054688 19.882813s20.265625-8.832031 21.035156-19.90625c77.269532 9.558593 138.625 70.914062 148.179688 148.183593-11.070313.789063-19.882813 9.789063-19.882813 21.054688s8.8125 20.265625 19.90625 21.035156c-9.578125 77.289063-70.914062 138.625-148.203125 148.203125zm0 0"/></svg>