<?xml version="1.0" encoding="UTF-8"?>
<svg width="25px" height="24px" viewBox="0 0 25 24" version="1.1" xmlns="http://www.w3.org/2000/svg" xmlns:xlink="http://www.w3.org/1999/xlink">
    <!-- Generator: Sketch 53.2 (72643) - https://sketchapp.com -->
    <title>003-user</title>
    <desc>Created with Sketch.</desc>
    <g id="Conversation" stroke="none" stroke-width="1" fill="none" fill-rule="evenodd">
        <g id="Menu-Leader" transform="translate(-18.000000, -167.000000)" fill="#AEAEAE" fill-rule="nonzero">
            <g id="Group-Copy" transform="translate(18.000000, 167.000000)">
                <g id="003-user">
                    <path d="M5.5,12.48 C3.54999782,12.48 2,13.9679979 2,15.84 C2,17.7120021 3.54999782,19.2 5.5,19.2 C7.45000218,19.2 9,17.7120021 9,15.84 C9,13.9679979 7.45000218,12.48 5.5,12.48 Z M5.5,18.2400139 C4.10001016,18.2400139 2.99998549,17.1839902 2.99998549,15.84 C2.99998549,14.4960098 4.10001016,13.4399861 5.5,13.4399861 C6.89998984,13.4399861 8.00001451,14.4960098 8.00001451,15.84 C7.99996373,17.1839902 6.89998984,18.2400139 5.5,18.2400139 Z" id="Shape"></path>
                    <path d="M5.50005078,18.24 C2.45000785,18.24 0,20.8058264 0,24 L0.999990767,24 C0.999990767,21.3817892 3.00002308,19.2872631 5.5,19.2872631 C7.99997692,19.2872631 10.0000092,21.3818424 10.0000092,24 L11,24 C11.0000508,20.8058264 8.55004293,18.24 5.50005078,18.24 Z" id="Path"></path>
                    <path d="M19.5,12.48 C17.5499978,12.48 16,13.9679979 16,15.84 C16,17.7120021 17.5499978,19.2 19.5,19.2 C21.4500022,19.2 23,17.7120021 23,15.84 C23,13.9679979 21.4500022,12.48 19.5,12.48 Z M19.5,18.2400139 C18.1000102,18.2400139 16.9999855,17.1839902 16.9999855,15.84 C16.9999855,14.4960098 18.0999594,13.4399861 19.5,13.4399861 C20.9000406,13.4399861 22.0000145,14.4960098 22.0000145,15.84 C21.9999637,17.1839902 20.8999898,18.2400139 19.5,18.2400139 Z" id="Shape"></path>
                    <path d="M19.5000508,18.24 C16.4500078,18.24 14,20.8058264 14,24 L14.9999908,24 C14.9999908,21.3817892 17.0000231,19.2872631 19.5,19.2872631 C21.9999769,19.2872631 24.0000092,21.3818424 24.0000092,24 L25,24 C25.0000508,20.8058264 22.5500429,18.24 19.5000508,18.24 Z" id="Path"></path>
                    <path d="M12.5,0 C10.5499978,0 9,1.48799791 9,3.36 C9,5.23200209 10.5499978,6.72 12.5,6.72 C14.4500022,6.72 16,5.23200209 16,3.36 C16,1.48799791 14.4500022,0 12.5,0 Z M12.5,5.76001393 C11.1000102,5.76001393 9.99998549,4.70399025 9.99998549,3.36 C9.99998549,2.01600975 11.1000102,0.959986071 12.5,0.959986071 C13.8999898,0.959986071 15.0000145,2.01600975 15.0000145,3.36 C15.0000145,4.70399025 13.8999898,5.76001393 12.5,5.76001393 Z" id="Shape"></path>
                    <path d="M12.5000508,5.76 C9.45000785,5.76 7,8.32580271 7,11.52 L7.99999077,11.52 C7.99999077,8.90181335 10.0000231,6.80730657 12.5,6.80730657 C14.9999769,6.80730657 17.0000092,8.90186653 17.0000092,11.52 L18,11.52 C18.0000508,8.32580271 15.5500429,5.76 12.5000508,5.76 Z" id="Path"></path>
                </g>
            </g>
        </g>
    </g>
</svg>