<?xml version="1.0" encoding="UTF-8"?>
<svg width="20px" height="20px" viewBox="0 0 20 20" version="1.1" xmlns="http://www.w3.org/2000/svg" xmlns:xlink="http://www.w3.org/1999/xlink">
    <!-- Generator: Sketch 53.2 (72643) - https://sketchapp.com -->
    <title>001-connect</title>
    <desc>Created with Sketch.</desc>
    <g id="Conversation" stroke="none" stroke-width="1" fill="none" fill-rule="evenodd">
        <g id="Home-2" transform="translate(-329.000000, -494.000000)" fill="#2E9F60" fill-rule="nonzero">
            <g id="Join" transform="translate(179.000000, 484.000000)">
                <g id="001-connect" transform="translate(150.000000, 10.000000)">
                    <path d="M6.26739493,2.451875 C8.72125278,0.84015624 12.0787472,0.84015624 14.5326051,2.451875 C14.5601355,3.75109376 15.5926023,4.8 16.8637168,4.8 C18.1521709,4.8 19.2,3.72359376 19.2,2.4 C19.2,1.07640624 18.1521709,0 16.8637168,0 C15.9853291,0 15.2280144,0.50625 14.8290514,1.24406248 C12.148714,-0.34078124 8.65113387,-0.34078124 5.97094855,1.24406248 C5.5719856,0.50625 4.81467092,0 3.93628319,0 C2.64782908,0 1.6,1.07640624 1.6,2.4 C1.6,3.72359376 2.64782908,4.8 3.93628319,4.8 C5.20739767,4.8 6.23986448,3.75109376 6.26739493,2.451875 Z" id="Path"></path>
                    <path d="M12.8,12 C12.8,10.6764062 11.7235938,9.6 10.4,9.6 C9.07640624,9.6 8,10.6764062 8,12 C8,13.3235938 9.07640624,14.4 10.4,14.4 C11.7235938,14.4 12.8,13.3235938 12.8,12 Z" id="Path"></path>
                    <path d="M16.484375,4.8 C14.5457459,4.8 12.96875,6.36540977 12.96875,8.28979592 L12.96875,10.0734694 C12.96875,10.394882 13.230896,10.655102 13.5546875,10.655102 L17.4360657,10.655102 C16.8836975,12.9817841 15.2252197,14.8957191 13.0010986,15.8431441 C12.3851013,14.8302854 11.2763977,14.144898 10,14.144898 C8.7236023,14.144898 7.61489867,14.8302854 6.99890137,15.8432956 C4.7746277,14.8957191 3.11614992,12.9817841 2.56393434,10.655102 L6.4453125,10.655102 C6.76910398,10.655102 7.03125,10.394882 7.03125,10.0734694 L7.03125,8.28979592 C7.03125,6.36540977 5.45425414,4.8 3.515625,4.8 C1.57699586,4.8 0,6.36540977 0,8.28979592 L0,10.0734694 C0,10.394882 0.262146016,10.655102 0.5859375,10.655102 L1.36810305,10.655102 C1.94351195,13.4676897 3.89709473,15.793766 6.56005859,16.9187101 C6.51138305,17.15 6.484375,17.3891661 6.484375,17.6346939 L6.484375,19.4183673 C6.484375,19.73978 6.74652102,20 7.0703125,20 L12.9296875,20 C13.253479,20 13.515625,19.73978 13.515625,19.4183673 L13.515625,17.6346939 C13.515625,17.3891661 13.488617,17.15 13.4399414,16.9187101 C16.1029053,15.793766 18.056488,13.4676897 18.631897,10.655102 L19.4140625,10.655102 C19.737854,10.655102 20,10.394882 20,10.0734694 L20,8.28979592 C20,6.36540977 18.4230041,4.8 16.484375,4.8 Z" id="Path"></path>
                </g>
            </g>
        </g>
    </g>
</svg>