<?xml version="1.0" encoding="UTF-8"?>
<svg width="22px" height="20px" viewBox="0 0 22 20" version="1.1" xmlns="http://www.w3.org/2000/svg" xmlns:xlink="http://www.w3.org/1999/xlink">
    <!-- Generator: Sketch 53.2 (72643) - https://sketchapp.com -->
    <title>001-log-out</title>
    <desc>Created with Sketch.</desc>
    <g id="Conversation" stroke="none" stroke-width="1" fill="none" fill-rule="evenodd">
        <g id="Menu-Leader" transform="translate(-17.000000, -330.000000)" fill="#AEAEAE" fill-rule="nonzero">
            <g id="Group-Copy-4" transform="translate(17.000000, 330.000000)">
                <g id="001-log-out">
                    <path d="M19.5877285,2.65353893e-15 L11.4354302,2.65353893e-15 C10.0954591,2.65353893e-15 9,1.07810396 9,2.379283 L9,4.4819824 C9,4.80783072 9.27205992,5.07186744 9.60757513,5.07186744 C9.94309034,5.07186744 10.2149603,4.80783072 10.2149603,4.4819824 L10.2149603,2.379283 C10.2166701,1.72315812 10.7598401,1.18936475 11.4354302,1.17995462 L19.5877285,1.17995462 C20.2578091,1.17995462 20.7850201,1.7286935 20.7850201,2.379283 L20.7850201,17.6352935 C20.7929995,18.2820082 20.2597089,18.8124804 19.5938081,18.8200454 L11.4356202,18.8200454 C10.7626899,18.8176467 10.2178101,18.2886507 10.2149603,17.6352935 L10.2149603,15.5765079 C10.2149603,15.2504751 9.94309034,14.9864384 9.60757513,14.9864384 C9.27205992,14.9864384 9,15.2504751 9,15.5765079 L9,17.6352935 C9.0036097,18.9401627 10.0918494,19.9968633 11.4354302,20 L19.5877285,20 C20.9250398,19.9952027 22.0053,18.9379486 21.9999804,17.6389837 L21.9999804,2.379283 C21.9999804,1.07810396 20.9276996,0 19.5877285,0 L19.5877285,2.65353893e-15 Z" id="Path"></path>
                    <path d="M2.07663397,10.3559337 L16.3949066,10.3559337 C16.7290514,10.3559337 17,10.106012 17,9.79779849 C17,9.48975952 16.7290514,9.23983781 16.3949066,9.23983781 L1.94229489,9.23983781 L5.04628392,5.93029489 C5.2651998,5.69555698 5.23795357,5.34196665 4.98592594,5.13794537 C4.73446595,4.93514575 4.35245107,4.95870681 4.1327783,5.19047779 L4.1327783,5.19082682 L0.220295282,9.34752059 C0.0761172871,9.45694857 -0.00505376306,9.62170143 0.000244127243,9.79360986 C0.00592043742,9.96586737 0.0974980462,10.1260826 0.248676748,10.2273078 L4.16153821,13.8365125 C4.39786146,14.0544958 4.78101157,14.0544958 5.01695637,13.8365125 C5.25025221,13.6253356 5.25384721,13.2801225 5.02509241,13.0649315 C5.02244344,13.0626627 5.01979448,13.0602193 5.01695637,13.0577759 L2.07663397,10.3559337 Z" id="Path"></path>
                </g>
            </g>
        </g>
    </g>
</svg>