<?xml version="1.0" encoding="iso-8859-1"?>
<!-- Generator: Adobe Illustrator 19.0.0, SVG Export Plug-In . SVG Version: 6.00 Build 0)  -->
<svg version="1.1" id="Capa_1" xmlns="http://www.w3.org/2000/svg" xmlns:xlink="http://www.w3.org/1999/xlink" x="0px" y="0px"
	 viewBox="0 0 368.002 368.002" style="enable-background:new 0 0 368.002 368.002;" xml:space="preserve">
<g>
	<g>
		<g>
			<path d="M367.492,357.193l-48-128c-1.168-3.12-4.152-5.192-7.488-5.192h-73.352l27.616-48.696
				c4.496-7.928,10.936-21.24,14.36-29.688c0.304-0.744,7.376-18.448,7.376-38.016c0-59.328-46.656-107.6-104-107.6
				s-104,48.272-104,107.6c0,19.584,7.136,37.304,7.44,38.04c3.432,8.432,9.88,21.736,14.368,29.664l27.576,48.696H56.004
				c-3.336,0-6.32,2.072-7.496,5.192l-48,128c-0.92,2.456-0.576,5.208,0.92,7.368c1.496,2.152,3.952,3.44,6.576,3.44h352
				c2.624,0,5.08-1.288,6.576-3.44C368.076,362.401,368.412,359.649,367.492,357.193z M115.724,167.417
				c-4.128-7.296-10.296-20.04-13.472-27.808c-0.064-0.152-6.248-15.52-6.248-32c0-50.512,39.48-91.608,88-91.608s88,41.096,88,91.6
				c0,16.368-6.152,31.864-6.2,32.008c-3.152,7.776-9.312,20.504-13.456,27.8l-34.304,60.488c-0.032,0.056-0.088,0.104-0.12,0.16
				l-32.992,58.232c-0.344,0.616-0.672,1.048-0.928,1.328c-0.256-0.28-0.568-0.704-0.92-1.312l-33.008-58.256
				c0,0,0-0.008-0.008-0.008L115.724,167.417z M19.548,352.001l42-112h76.904l30.696,54.184c0.008,0.016,0.016,0.024,0.024,0.032
				l7.864,13.88c2.84,5.008,11.08,5.008,13.92,0l7.888-13.92c0,0,0,0,0-0.008l30.736-54.168h76.88l42,112H19.548z"/>
			<path d="M240.004,104.001c0-30.88-25.128-56-56-56s-56,25.12-56,56s25.128,56,56,56S240.004,134.881,240.004,104.001z
				 M144.004,104.001c0-22.056,17.944-40,40-40c22.056,0,40,17.944,40,40c0,22.056-17.944,40-40,40
				C161.948,144.001,144.004,126.057,144.004,104.001z"/>
		</g>
	</g>
</g>
<g>
</g>
<g>
</g>
<g>
</g>
<g>
</g>
<g>
</g>
<g>
</g>
<g>
</g>
<g>
</g>
<g>
</g>
<g>
</g>
<g>
</g>
<g>
</g>
<g>
</g>
<g>
</g>
<g>
</g>
</svg>
