<?xml version="1.0" encoding="UTF-8"?>
<svg width="26px" height="37px" viewBox="0 0 26 37" version="1.1" xmlns="http://www.w3.org/2000/svg" xmlns:xlink="http://www.w3.org/1999/xlink">
    <!-- Generator: Sketch 53.2 (72643) - https://sketchapp.com -->
    <title>flag copy 4</title>
    <desc>Created with Sketch.</desc>
    <g id="Conversation" stroke="none" stroke-width="1" fill="none" fill-rule="evenodd">
        <g id="Map-Detail" transform="translate(-252.000000, -546.000000)" fill="#FB5252" fill-rule="nonzero">
            <g id="flag-copy-4" transform="translate(252.000000, 546.000000)">
                <path d="M25.6576003,14.1921636 L1.18180605,2.65356364 L1.18180605,1.23636364 C1.18180605,0.904563636 0.917081495,0.636363636 0.590903025,0.636363636 C0.264724555,0.636363636 0,0.904563636 0,1.23636364 L0,3.03636364 L0,22.8363636 L0,24.6363636 L0,36.0363636 C0,36.3681636 0.264724555,36.6363636 0.590903025,36.6363636 C0.917081495,36.6363636 1.18180605,36.3681636 1.18180605,36.0363636 L1.18180605,25.0449636 L25.6251006,15.2943636 C25.8455074,15.2067636 25.9926423,14.9937636 25.9997331,14.7543636 C26.006824,14.5143636 25.8720981,14.2935636 25.6576003,14.1921636 Z" id="Path"></path>
            </g>
        </g>
    </g>
</svg>