<?xml version="1.0" encoding="UTF-8"?>
<svg width="20px" height="16px" viewBox="0 0 20 16" version="1.1" xmlns="http://www.w3.org/2000/svg" xmlns:xlink="http://www.w3.org/1999/xlink">
    <!-- Generator: Sketch 53.2 (72643) - https://sketchapp.com -->
    <title>menu-2</title>
    <desc>Created with Sketch.</desc>
    <g id="Conversation" stroke="none" stroke-width="1" fill="none" fill-rule="evenodd">
        <g transform="translate(-335.000000, -47.000000)" fill="#AEAEAE" fill-rule="nonzero" id="menu-2">
            <g transform="translate(335.000000, 47.000000)">
                <path d="M0.624935065,2.5184456 L19.3734545,2.5184456 C19.7184416,2.5184456 19.9983896,1.95989637 19.9983896,1.27181347 C19.9983896,0.583626943 19.7183896,0.0251813472 19.3734545,0.0251813472 L0.624935065,0.0251813472 C0.279948052,0.0251813472 0,0.58373057 0,1.27181347 C0,1.95989637 0.28,2.5184456 0.624935065,2.5184456 Z" id="Path"></path>
                <path d="M19.4687624,6.75181347 L3.53123758,6.75181347 C3.23797501,6.75181347 3,7.31036269 3,7.9984456 C3,8.6865285 3.23801917,9.24507772 3.53123758,9.24507772 L19.4687624,9.24507772 C19.762025,9.24507772 20,8.6865285 20,7.9984456 C20,7.31036269 19.762025,6.75181347 19.4687624,6.75181347 Z" id="Path"></path>
                <path d="M19.3734545,13.4784456 L6.87444156,13.4784456 C6.52945455,13.4784456 6.24950649,14.0369948 6.24950649,14.7250777 C6.24950649,15.4132642 6.52950649,15.9717098 6.87444156,15.9717098 L19.3734545,15.9717098 C19.7184416,15.9717098 19.9983896,15.4131606 19.9983896,14.7250777 C19.9984416,14.0368912 19.7184416,13.4784456 19.3734545,13.4784456 Z" id="Path"></path>
            </g>
        </g>
    </g>
</svg>