<?xml version="1.0" encoding="UTF-8"?>
<svg width="367px" height="220px" viewBox="0 0 367 220" version="1.1" xmlns="http://www.w3.org/2000/svg" xmlns:xlink="http://www.w3.org/1999/xlink">
    <!-- Generator: Sketch 53.2 (72643) - https://sketchapp.com -->
    <title>004-menu</title>
    <desc>Created with Sketch.</desc>
    <g id="Conversation" stroke="none" stroke-width="1" fill="none" fill-rule="evenodd">
        <g id="Menu-Leader" transform="translate(0.000000, -383.000000)" fill="#AEAEAE" fill-rule="nonzero">
            <g id="004-menu" transform="translate(-8.000000, 383.000000)">
                <path d="M361.75,125.042938 L70.25,125.042938 C62.9359743,125.042938 57,118.042969 57,109.417938 C57,100.792908 62.9359743,93.7929385 70.25,93.7929385 L361.75,93.7929385 C369.064026,93.7929385 375,100.792908 375,109.417938 C375,118.042969 369.064026,125.042938 361.75,125.042938 Z" id="Path"></path>
                <path d="M359.375,31.25 L15.625,31.25 C6.99996973,31.25 0,24.2500303 0,15.625 C0,6.99996973 6.99996973,0 15.625,0 L359.375,0 C368.00003,0 375,6.99996973 375,15.625 C375,24.2500303 368.00003,31.25 359.375,31.25 Z" id="Path"></path>
                <path d="M364.5,219.25 L133.5,219.25 C127.70398,219.25 123,212.25003 123,203.625 C123,194.99997 127.70398,188 133.5,188 L364.5,188 C370.29602,188 375,194.99997 375,203.625 C375,212.25003 370.29602,219.25 364.5,219.25 Z" id="Path"></path>
            </g>
        </g>
    </g>
</svg>