<?xml version="1.0" encoding="UTF-8"?>
<svg width="14px" height="21px" viewBox="0 0 14 21" version="1.1" xmlns="http://www.w3.org/2000/svg" xmlns:xlink="http://www.w3.org/1999/xlink">
    <!-- Generator: Sketch 53.2 (72643) - https://sketchapp.com -->
    <title>001-microphone</title>
    <desc>Created with Sketch.</desc>
    <g id="Conversation" stroke="none" stroke-width="1" fill="none" fill-rule="evenodd">
        <g id="Conversation-Attach" transform="translate(-261.000000, -609.000000)" fill="#0DBB59" fill-rule="nonzero">
            <g id="Share-location" transform="translate(236.000000, 599.000000)">
                <g id="001-microphone" transform="translate(25.000000, 10.000000)">
                    <path d="M7.5,0 C5.019,0 3,1.94610131 3,4.33770127 L3,10.6622987 C3,13.0543623 5.019,15 7.5,15 C9.981,15 12,13.0543623 12,10.6622987 L12,4.33770127 C12,1.94610131 9.981,0 7.5,0 Z M7.5,14.0728436 C5.732,14.0728436 4.2695,12.7873412 4.036,11.1258769 L10.9635,11.1258769 C10.7305,12.7878048 9.268,14.0728436 7.5,14.0728436 Z M11,10.1987205 L4,10.1987205 L4,4.33770127 C4,2.45696449 5.57,0.927156411 7.5,0.927156411 C9.43,0.927156411 11,2.45696449 11,4.33770127 L11,10.1987205 Z" id="Shape"></path>
                    <path d="M13.5333333,8 C13.2757333,8 13.0666667,8.208 13.0666667,8.46428571 L13.0666667,10.3214286 C13.0666667,13.6494286 10.3450667,16.3571429 7,16.3571429 C3.65493333,16.3571429 0.933333333,13.6494286 0.933333333,10.3214286 L0.933333333,8.46428571 C0.933333333,8.208 0.724266667,8 0.466666667,8 C0.209066667,8 0,8.208 0,8.46428571 L0,10.3214286 C0,14.0046071 2.891,17.0215357 6.53333333,17.2620357 L6.53333333,20.0714286 L4.2,20.0714286 C3.9424,20.0714286 3.73333333,20.2794286 3.73333333,20.5357143 C3.73333333,20.792 3.9424,21 4.2,21 L9.8,21 C10.0576,21 10.2666667,20.792 10.2666667,20.5357143 C10.2666667,20.2794286 10.0576,20.0714286 9.8,20.0714286 L7.46666667,20.0714286 L7.46666667,17.2620357 C11.109,17.0215357 14,14.0046071 14,10.3214286 L14,8.46428571 C14,8.208 13.7909333,8 13.5333333,8 Z" id="Path"></path>
                </g>
            </g>
        </g>
    </g>
</svg>