<?xml version="1.0" encoding="UTF-8"?>
<svg width="23px" height="19px" viewBox="0 0 23 19" version="1.1" xmlns="http://www.w3.org/2000/svg" xmlns:xlink="http://www.w3.org/1999/xlink">
    <!-- Generator: Sketch 53.2 (72643) - https://sketchapp.com -->
    <title>002-mountain</title>
    <desc>Created with Sketch.</desc>
    <g id="Conversation" stroke="none" stroke-width="1" fill="none" fill-rule="evenodd">
        <g id="Conversation-Attach" transform="translate(-97.000000, -610.000000)" fill="#0DBB59" fill-rule="nonzero">
            <g id="Choose-image" transform="translate(88.000000, 599.000000)">
                <g id="002-mountain" transform="translate(9.000000, 11.000000)">
                    <path d="M22.5183824,16.8463058 L19.1730719,14.3786655 L12.5284057,0.656280899 C12.3332663,0.25331849 11.9346322,0 11.499926,0 C11.4888304,0 11.4773305,0 11.4658305,0.000417481488 C11.0185014,0.0138696628 10.6190586,0.294509996 10.4427414,0.719645312 L6.98890038,9.04162852 L6.50707145,8.60619533 C6.29585016,8.41540629 6.02636556,8.31247391 5.75000797,8.31247391 C5.68675838,8.31247391 5.62310449,8.31799394 5.55949552,8.3287093 C5.21907975,8.38766696 4.92277697,8.60141748 4.75144604,8.91058572 L0.151475671,17.223106 C-0.0517046614,17.5908144 -0.0505367001,18.0420655 0.155294005,18.4082432 C0.361124711,18.7747919 0.740262894,19 1.1500376,19 L21.8499043,19 C22.3497917,19 22.7924939,18.6662931 22.9450925,18.1750566 C23.0976013,17.6831242 22.9251024,17.1463358 22.5183824,16.8463058 Z M11.499926,1.1875029 L13.8282567,5.99610106 L11.723366,7.44564318 L10.8643305,5.6719035 C10.7665811,5.47081658 10.5676234,5.34376305 10.3498885,5.34376305 L9.7748922,5.34376305 L11.499926,1.1875029 Z M9.28196764,6.53126595 L9.99496305,6.53126595 L10.985484,8.57813129 C11.0594699,8.73051204 11.1932463,8.84253624 11.352718,8.88646457 C11.4010087,8.89991675 11.4504673,8.90627174 11.499926,8.90627174 C11.61223,8.90627174 11.7234109,8.87222381 11.8188693,8.80654006 L14.346562,7.06643083 L17.1728485,12.9034251 L14.4684342,10.9087913 C14.2671855,10.7603534 14.0329644,10.6875261 13.8002706,10.6875261 C13.5039678,10.6875261 13.2095517,10.8054878 12.9868305,11.0354737 L11.2177735,12.8622336 L7.89928123,9.86378873 L9.28196764,6.53126595 Z M17.0586129,14.2785163 L16.0998964,14.7736957 L14.0571322,13.7188128 C13.9336877,13.6554948 13.7941612,13.6400479 13.660789,13.6740959 L11.5233302,14.2259136 L13.7999112,11.875029 L17.0586129,14.2785163 Z M5.74996305,9.50002319 L7.72143668,11.2812775 L6.89995564,11.2812775 C6.74740194,11.2812775 6.60136186,11.343807 6.4932356,11.4550426 L4.59997045,13.4104795 L3.95485156,12.7442718 L5.74996305,9.50002319 Z M1.14999268,17.8125899 L3.36332412,13.8126534 L4.19325042,14.6696501 C4.30555438,14.7856172 4.45276242,14.8438326 4.59997045,14.8438326 C4.74717849,14.8438326 4.89438653,14.7860346 5.00669049,14.6700676 L7.13839942,12.4688268 L9.0358872,12.4688268 L10.4024468,13.7038298 L6.42347238,17.8125899 L1.14999268,17.8125899 L1.14999268,17.8125899 Z M8.04994823,17.8125435 L9.94321338,15.8575241 L13.732439,14.8794113 L15.8426754,15.9687597 C15.9235792,16.0103223 16.0121196,16.0312891 16.0998964,16.0312891 C16.1876732,16.0312891 16.2762136,16.0103223 16.3571174,15.9687597 L18.117774,15.0599025 L21.8499043,17.8125435 L8.04994823,17.8125435 L8.04994823,17.8125435 Z" id="Shape"></path>
                </g>
            </g>
        </g>
    </g>
</svg>