<?xml version="1.0" encoding="UTF-8"?>
<svg width="22px" height="19px" viewBox="0 0 22 19" version="1.1" xmlns="http://www.w3.org/2000/svg" xmlns:xlink="http://www.w3.org/1999/xlink">
    <!-- Generator: Sketch 53.2 (72643) - https://sketchapp.com -->
    <title>001-next</title>
    <desc>Created with Sketch.</desc>
    <g id="Authentication" stroke="none" stroke-width="1" fill="none" fill-rule="evenodd">
        <g id="Login" transform="translate(-308.000000, -468.000000)" fill="#FFFFFF" fill-rule="nonzero">
            <g id="Action" transform="translate(287.000000, 445.000000)">
                <g id="001-next" transform="translate(21.000000, 23.000000)">
                    <path d="M21.1080999,9 L0.891900087,9 C0.399297475,9 0,9.44798446 0,10 C0,10.5520155 0.399254157,11 0.891900087,11 L21.1080999,11 C21.6007025,11 22,10.5523555 22,10 C22,9.44764449 21.6007458,9 21.1080999,9 Z" id="Path"></path>
                    <path d="M21.7268484,8.87786535 L12.5913242,0.257513473 C12.2271221,-0.0858378242 11.6373537,-0.0858378242 11.2731516,0.257513473 C10.9089495,0.601163819 10.9089495,1.15824991 11.2731516,1.50160121 L19.7495894,9.50001602 L11.2731516,17.4984736 C10.9089495,17.8418249 10.9089495,18.3989109 11.2731516,18.7422622 C11.4552527,18.9140874 11.6935868,19 11.9322379,19 C12.170889,19 12.4092232,18.9140874 12.5913242,18.7422622 L21.7268484,10.1219531 C22.0910505,9.77830274 22.0910505,9.22117393 21.7268484,8.87786535 Z" id="Path"></path>
                </g>
            </g>
        </g>
    </g>
</svg>