<?xml version="1.0" encoding="UTF-8"?>
<svg width="20px" height="20px" viewBox="0 0 20 20" version="1.1" xmlns="http://www.w3.org/2000/svg" xmlns:xlink="http://www.w3.org/1999/xlink">
    <!-- Generator: Sketch 53.2 (72643) - https://sketchapp.com -->
    <title>001-clock</title>
    <desc>Created with Sketch.</desc>
    <g id="Conversation" stroke="none" stroke-width="1" fill="none" fill-rule="evenodd">
        <g id="Task" transform="translate(-27.000000, -123.000000)" fill="#EFC634" fill-rule="nonzero">
            <g id="Task-progress" transform="translate(15.000000, 105.000000)">
                <g id="Progress" transform="translate(12.000000, 18.000000)">
                    <g id="001-clock">
                        <path d="M10,0 C4.486,0 0,4.486 0,10 C0,10.2436471 0.197470588,10.4411765 0.441176471,10.4411765 C0.684882353,10.4411765 0.882352941,10.2436471 0.882352941,10 C0.882352941,4.97252941 4.97247059,0.882352941 10,0.882352941 C15.0275294,0.882352941 19.1176471,4.97252941 19.1176471,10 C19.1176471,15.0274706 15.0275294,19.1176471 10,19.1176471 C8.13817647,19.1176471 6.34770588,18.5602941 4.82223529,17.5058824 C3.33129412,16.4753529 2.19082353,15.044 1.524,13.3666471 C1.434,13.1402353 1.17735294,13.0296471 0.951058824,13.1196471 C0.724588235,13.2096471 0.614058824,13.4661765 0.704058824,13.6925882 C1.43547059,15.5322941 2.68594118,17.1018824 4.32052941,18.2317647 C5.99411765,19.3885294 7.95805882,20 10,20 C15.514,20 20,15.514 20,10 C20,4.486 15.514,0 10,0 Z" id="Path"></path>
                        <path d="M10,2.5 C5.86452947,2.5 2.5,5.86447202 2.5,10 C2.5,14.135528 5.86452947,17.5 10,17.5 C14.1354705,17.5 17.5,14.135528 17.5,10 C17.5,7.74531771 16.4993106,5.63104677 14.7545099,4.19935654 C14.5705504,4.04843158 14.2990348,4.07508905 14.1480524,4.25916351 C13.99707,4.44312306 14.0238424,4.71463863 14.2078019,4.8655636 C15.7523842,6.13294266 16.6382282,8.00436631 16.6382282,10.0000575 C16.6382282,13.6604045 13.660347,16.6382856 10,16.6382856 C6.33965299,16.6382856 3.3617718,13.660347 3.3617718,10 C3.3617718,6.33965299 6.33965299,3.3617718 10,3.3617718 C10.2380214,3.3617718 10.4308859,3.16884982 10.4308859,2.9308859 C10.4308859,2.69292198 10.2380214,2.5 10,2.5 Z" id="Path"></path>
                        <path d="M10.4717698,5.5 C10.2111642,5.5 10,5.67766256 10,5.8968044 L10,10.3735517 C10,10.4787842 10.0496931,10.5797312 10.1381342,10.6541188 L12.1945474,12.3837628 C12.2866998,12.461219 12.4074728,12.5 12.528183,12.5 C12.6488932,12.5 12.7696662,12.4612719 12.8618186,12.3837628 C13.0460605,12.2287974 13.0460605,11.9775409 12.8618186,11.8226284 L10.9435396,10.2092217 L10.9435396,5.8968044 C10.9435396,5.67766256 10.7323755,5.5 10.4717698,5.5 Z" id="Path"></path>
                    </g>
                </g>
            </g>
        </g>
    </g>
</svg>