<?xml version="1.0" encoding="UTF-8"?>
<svg width="153px" height="153px" viewBox="0 0 153 153" version="1.1" xmlns="http://www.w3.org/2000/svg" xmlns:xlink="http://www.w3.org/1999/xlink">
    <!-- Generator: Sketch 53.2 (72643) - https://sketchapp.com -->
    <title>002-clipboard</title>
    <desc>Created with Sketch.</desc>
    <g id="Authentication" stroke="none" stroke-width="1" fill="none" fill-rule="evenodd">
        <g id="Sign-up-Done" transform="translate(-111.000000, -67.000000)" fill-rule="nonzero">
            <g id="002-clipboard" transform="translate(111.000000, 67.000000)">
                <path d="M153,76.5 C153,118.750328 118.750328,153 76.5,153 C34.2496719,153 0,118.750328 0,76.5 C0,34.2496719 34.2496719,0 76.5,0 C118.750328,0 153,34.2496719 153,76.5 Z" id="Path" fill="#FFEC98"></path>
                <path d="M153,76.2544651 C153,68.7024029 151.905794,61.406799 149.876369,54.5140346 L120.360858,24.8081632 C118.74176,23.0820443 116.448135,22 113.912523,22 L38.8611998,22 C33.98754,22 30,25.9944306 30,30.8765127 L30,121.631246 C30,124.112688 31.0310788,126.363435 32.6840785,127.977133 C32.6840785,127.977133 42.6301323,137.950914 54.4700046,149.807734 C61.4151744,151.880482 68.7695027,153 76.3868613,153 C118.699675,153 153,118.6404 153,76.2544651 Z" id="Path" fill="#FFDB2D"></path>
                <path d="M114.212702,131 L39.7872984,131 C34.9542843,131 31,127.024304 31,122.16512 L31,31.8348799 C31,26.9756959 34.9542843,23 39.7872984,23 L114.212702,23 C119.045716,23 123,26.9756959 123,31.8348799 L123,122.16512 C123,127.024304 119.045716,131 114.212702,131 Z" id="Path" fill="#004EB1"></path>
                <path d="M123,31.8346895 L123,122.16531 C123,127.022059 119.046875,131 114.212702,131 L77,131 L77,23 L114.212702,23 C119.046875,23 123,26.9779413 123,31.8346895 Z" id="Path" fill="#002D6B"></path>
                <polygon id="Path" fill="#FFFFFF" points="37 29 116 29 116 124 37 124"></polygon>
                <polygon id="Path" fill="#FFF5CB" points="77 29 117 29 117 124 77 124"></polygon>
                <path d="M76.5005796,49 L56,57.2646934 L56,81.6908529 C56,88.9505238 58.612728,98.2719599 76.5005796,104 C94.3872717,98.2719599 97,88.9505238 97,81.6908529 C97,74.431182 97,57.2646934 97,57.2646934 L76.5005796,49 Z" id="Path" fill="#00AD95"></path>
                <path d="M97,57.2645167 L97,81.6925048 C97,88.9496698 94.323471,98.272082 76,104 L76,49 L97,57.2645167 Z" id="Path" fill="#006659"></path>
                <path d="M76.5005875,46 L53,55.3792617 L53,81.7464176 C53,87.0005027 54.3493385,91.3816596 57.125591,95.1435091 C60.8292194,100.161668 66.898892,103.955367 75.680171,106.740481 L76.5005875,107 L77.3210043,106.740481 C86.1022833,103.955367 92.1719559,100.161668 95.8755846,95.1435091 C98.6506615,91.3816596 100,87.0005027 100,81.7464176 L100,55.3792617 L76.5005875,46 Z M94.5556306,81.7464176 C94.5556306,88.0633519 92.4799058,95.9586355 76.5005875,101.263445 C60.5212695,95.9586355 58.4455447,88.0633519 58.4455447,81.7464176 L58.4455447,59.0868482 L76.5005875,51.8804702 L94.5556306,59.0868482 L94.5556306,81.7464176 Z" id="Shape" fill="#00FFEA"></path>
                <path d="M76,46 L76,51.8836676 L93.6733695,59.0872682 L93.6733695,81.7478825 C93.6733695,88.0644507 91.6405063,95.9580965 76,101.263778 L76,107 L76.8030214,106.738137 C85.3969588,103.954364 91.3367848,100.162064 94.9653364,95.1430173 C97.6815728,91.3813861 99,86.9993038 99,81.749062 L99,55.3798971 L76,46 Z" id="Path" fill="#00CEB4"></path>
                <polygon id="Path" fill="#FFFFFF" points="76.1264185 88 63 76.7553793 67.2474329 72.0622876 75.4780711 79.1121177 86.1135314 67 91 71.061155"></polygon>
                <polygon id="Path" fill="#FFEC98" points="90 70.2233059 76 87 76 76.9949554 85.1727705 66"></polygon>
                <polygon id="Path" fill="#00FFEA" points="37 116 116 116 116 123 37 123"></polygon>
                <polygon id="Path" fill="#00AD95" points="77 116 117 116 117 123 77 123"></polygon>
                <path d="M87.6171785,39 L66.3816412,39 C61.7524454,39 58,35.2873429 58,30.7072315 L58,22 L96,22 L96,30.7072315 C96,35.2873429 92.2463743,39 87.6171785,39 Z" id="Path" fill="#FFB74F"></path>
                <path d="M95,22 L95,30.7095665 C95,35.2885104 91.245311,39 86.6174389,39 L76,39 L76,22 L95,22 Z" id="Path" fill="#FF8900"></path>
            </g>
        </g>
    </g>
</svg>