<?xml version="1.0" encoding="UTF-8"?>
<svg width="22px" height="22px" viewBox="0 0 22 22" version="1.1" xmlns="http://www.w3.org/2000/svg" xmlns:xlink="http://www.w3.org/1999/xlink">
    <!-- Generator: Sketch 53.2 (72643) - https://sketchapp.com -->
    <title>loupe-3</title>
    <desc>Created with Sketch.</desc>
    <g id="Conversation" stroke="none" stroke-width="1" fill="none" fill-rule="evenodd">
        <g id="Home" transform="translate(-333.000000, -44.000000)" fill="#AEAEAE" fill-rule="nonzero">
            <g id="loupe-3" transform="translate(333.000000, 44.000000)">
                <path d="M9.9,0 C4.44128769,0 0,4.44128769 0,9.9 C0,15.3590197 4.44128769,19.8 9.9,19.8 C15.3590197,19.8 19.8,15.3590197 19.8,9.9 C19.8,4.44128769 15.3590197,0 9.9,0 Z M9.9,17.9723502 C5.44896485,17.9723502 1.82769366,14.3510791 1.82769366,9.90004391 C1.82769366,5.44900875 5.44896485,1.82769366 9.9,1.82769366 C14.3510352,1.82769366 17.9723063,5.44896485 17.9723063,9.9 C17.9723063,14.3510352 14.3510352,17.9723502 9.9,17.9723502 Z" id="Shape"></path>
                <path d="M21.7221544,20.3812874 L16.2853881,14.9445127 C15.9149273,14.5740513 15.3149731,14.5740513 14.9445123,14.9445127 C14.5740515,15.3146551 14.5740515,15.9152482 14.9445123,16.2853906 L20.3812786,21.7221654 C20.5664862,21.9073733 20.8089646,22 21.0517165,22 C21.2941494,22 21.5369012,21.9073733 21.7221544,21.7221654 C22.0926152,21.3520229 22.0926152,20.7514299 21.7221544,20.3812874 Z" id="Path"></path>
            </g>
        </g>
    </g>
</svg>