<?xml version="1.0" encoding="iso-8859-1"?>
<!-- Generator: Adobe Illustrator 19.0.0, SVG Export Plug-In . SVG Version: 6.00 Build 0)  -->
<svg version="1.1" id="Layer_1" xmlns="http://www.w3.org/2000/svg" xmlns:xlink="http://www.w3.org/1999/xlink" x="0px" y="0px"
	 viewBox="0 0 512 512" style="enable-background:new 0 0 512 512;" xml:space="preserve">
<g>
	<g>
		<path d="M467,179.997H301v-30h45c12.351,0,19.394-14.141,12-24l-90-120c-6.002-8.001-18.011-7.984-24,0l-90,120
			c-7.41,9.881-0.324,24,12,24h45v30H45c-24.813,0-45,20.187-45,45v242c0,24.813,20.187,45,45,45h422c24.813,0,45-20.187,45-45v-242
			C512,200.184,491.813,179.997,467,179.997z M196,119.997l60-80l60,80h-30c-8.284,0-15,6.716-15,15v105h-30v-105
			c0-8.284-6.716-15-15-15H196z M211,209.997v45c0,8.284,6.716,15,15,15h60c8.284,0,15-6.716,15-15v-45h158.083l-193.205,170.08
			c-5.632,4.927-14.125,4.927-19.722,0.03L52.917,209.997H211z M30,462.37V229.79l132.912,117.004L30,462.37z M53.148,481.996
			l132.483-115.202l40.736,35.86c16.893,14.782,42.373,14.782,59.3-0.03l40.702-35.831l132.483,115.203H53.148z M482,462.37
			L349.088,346.794L482,229.791V462.37z"/>
	</g>
</g>
<g>
</g>
<g>
</g>
<g>
</g>
<g>
</g>
<g>
</g>
<g>
</g>
<g>
</g>
<g>
</g>
<g>
</g>
<g>
</g>
<g>
</g>
<g>
</g>
<g>
</g>
<g>
</g>
<g>
</g>
</svg>
