<?xml version="1.0" encoding="UTF-8"?>
<svg width="25px" height="21px" viewBox="0 0 25 21" version="1.1" xmlns="http://www.w3.org/2000/svg" xmlns:xlink="http://www.w3.org/1999/xlink">
    <!-- Generator: Sketch 53.2 (72643) - https://sketchapp.com -->
    <title>send</title>
    <desc>Created with Sketch.</desc>
    <g id="Conversation" stroke="none" stroke-width="1" fill="none" fill-rule="evenodd">
        <g transform="translate(-332.000000, -623.000000)" fill="#AEAEAE" fill-rule="nonzero" id="Input-box">
            <g transform="translate(0.000000, 601.000000)">
                <g id="send" transform="translate(332.000000, 22.000000)">
                    <path d="M23.511134,8.32930784 L3.34054523,0.181369329 C2.49079007,-0.161928934 1.53082993,-0.0109100221 0.835225033,0.575292439 C0.139620138,1.16158997 -0.15129759,2.06489887 0.0760459722,2.93279415 L2.05817324,10.4999967 L0.0760459722,18.0671993 C-0.15129759,18.9350946 0.13957131,19.8384035 0.835176205,20.424701 C1.53209946,21.0121394 2.49230374,21.1612569 3.34054523,20.8186241 L23.511134,12.6706856 C24.4294927,12.299722 25,11.4679533 25,10.4999967 C25,9.53204014 24.4294927,8.70027151 23.511134,8.32930784 Z M22.9496599,11.3534889 L2.77911991,19.5014274 C2.43991121,19.6383759 2.07169862,19.5805733 1.7940133,19.3465106 C1.51637681,19.1124955 1.40480464,18.7660124 1.49552722,18.4195292 L3.38317215,11.2130228 L10.6617306,11.2130228 C11.0662713,11.2130228 11.3942007,10.8937772 11.3942007,10.4999492 C11.3942007,10.1061212 11.0662713,9.78687564 10.6617306,9.78687564 L3.38322098,9.78687564 L1.49552722,2.58046422 C1.40480464,2.23402865 1.51637681,1.887498 1.7940133,1.65348286 C2.07164979,1.41946772 2.43976472,1.36157 2.77907108,1.49856607 L22.9496599,9.64650458 C23.4928723,9.86592646 23.5351086,10.3552524 23.5351086,10.4999967 C23.5351086,10.644741 23.4928723,11.134067 22.9496599,11.3534889 Z" id="Shape"></path>
                </g>
            </g>
        </g>
    </g>
</svg>