<?xml version="1.0" encoding="UTF-8"?>
<svg width="21px" height="20px" viewBox="0 0 21 20" version="1.1" xmlns="http://www.w3.org/2000/svg" xmlns:xlink="http://www.w3.org/1999/xlink">
    <!-- Generator: Sketch 53.2 (72643) - https://sketchapp.com -->
    <title>001-share</title>
    <desc>Created with Sketch.</desc>
    <g id="Conversation" stroke="none" stroke-width="1" fill="none" fill-rule="evenodd">
        <g id="Map-Detail" transform="translate(-338.000000, -621.000000)" fill="#2E9F60" fill-rule="nonzero">
            <g id="001-share" transform="translate(338.000000, 621.000000)">
                <path d="M20.8529586,6.9366303 L14.958172,0.136194639 C14.8339865,-0.00767707842 14.6588399,-0.0403510466 14.5083251,0.0515079632 C14.3590735,0.143951385 14.2632699,0.34482988 14.2632699,0.566215937 L14.2632699,4.5409112 C9.55843021,4.7169256 7.28866916,7.85144828 6.20972343,10.4929394 C5.27138447,12.7890959 5.06086907,15.0625134 5.01357909,15.9956075 C5.00453952,16.1384167 5,16.2839354 5,16.4322699 L5,16.4339169 C5,16.4339169 5,16.4344481 5,16.4350326 L5,16.4355638 C5,16.4360951 5,16.4360951 5,16.4360951 L5,16.4377421 L5,16.4382734 C5,16.4382734 5,16.4388047 5,16.4393891 L5,16.4399204 C5,16.4404517 5,16.4410361 5,16.4410361 C5,16.4415673 5,16.4415673 5,16.4415673 L5,16.4432143 C5,16.4437456 5,16.44433 5,16.4448613 C5,16.4448613 5,16.4453926 5,16.4465083 L5,16.4470396 L5,16.4481553 L5,16.4486866 C5,16.4492178 5,16.4498023 5,16.4503335 L5.00039474,16.4519805 C5.00039474,16.4519805 5.00039474,16.4519805 5.00039474,16.4525118 C5.00039474,16.4536275 5.00039474,16.4541588 5.00039474,16.4541588 C5.00039474,16.4546901 5.00039474,16.4552745 5.00039474,16.4558058 L5.00039474,16.4574527 L5.00039474,16.4590997 L5.00039474,16.459631 L5.00039474,16.461278 C5.00039474,16.4618093 5.00039474,16.4623937 5.00039474,16.462925 C5.00039474,16.462925 5.00039474,16.4640407 5.00078948,16.4645719 C5.00078948,16.4645719 5.00078948,16.4651032 5.00078948,16.4662189 L5.00078948,16.4667502 C5.00078948,16.4672815 5.00078948,16.4678659 5.00078948,16.4683972 L5.00078948,16.4700442 C5.00078948,16.4705755 5.00078948,16.4711599 5.00078948,16.4716912 C5.00039474,16.4733381 5.00161844,16.4739225 5.00118422,16.4739225 L5.00118422,16.4755695 C5.00118422,16.4761008 5.00118422,16.4766852 5.00118422,16.4772165 L5.00118422,16.4788635 C5.00118422,16.4799792 5.00157896,16.4810949 5.00157896,16.4810949 L5.00157896,16.4827419 C5.00157896,16.4832731 5.00157896,16.4838576 5.00157896,16.4843888 L5.00157896,16.4849201 L5.00157896,16.4860358 L5.00157896,16.4865671 L5.00197371,16.4876828 L5.00197371,16.4882141 C5.00197371,16.4887454 5.00197371,16.4893298 5.00197371,16.4893298 C5.00197371,16.4898611 5.00197371,16.4898611 5.00197371,16.4898611 L5.00197371,16.491508 L5.00197371,16.4920393 C5.00236845,16.4925706 5.00236845,16.4925706 5.00236845,16.493155 C5.00236845,16.493155 5.00236845,16.4936863 5.00236845,16.4942707 L5.00236845,16.494802 C5.00236845,16.4953333 5.00236845,16.4953333 5.00236845,16.4953333 L5.00236845,16.496449 C5.00276319,16.498096 5.00276319,16.498096 5.00276319,16.498096 C5.00276319,16.4986273 5.00276319,16.4992117 5.00276319,16.499743 L5.00276319,16.5002742 L5.00276319,16.5013899 L5.00276319,16.5019212 C5.00315793,16.5024525 5.00315793,16.5030369 5.00315793,16.5030369 C5.00315793,16.5041526 5.00315793,16.5046839 5.00315793,16.5046839 C5.02948716,16.7841393 5.20668642,17 5.42091239,17 C5.6532175,17 5.84154845,16.7471088 5.84198267,16.434395 L5.84198267,16.4338637 C5.84198267,16.4050681 5.84237741,16.3347793 5.84608797,16.2274599 C6.02987941,11.5150767 12.4983037,10.4458676 14.263112,10.241642 L14.263112,14.1665029 C14.263112,14.3878889 14.3589156,14.5887674 14.5081672,14.6812108 C14.6582478,14.7730698 14.8329996,14.7409803 14.9580141,14.5965241 L20.8528007,7.79608849 C20.946157,7.68871598 20.9999997,7.53156216 20.9999997,7.36606719 C21.0001576,7.20115662 20.9462754,7.0440028 20.8529586,6.9366303 Z M15.105371,12.9351458 L15.105371,9.63342807 C15.105371,9.47845252 15.0584757,9.33070242 14.9750275,9.22391433 C14.8969082,9.1226516 14.7924597,9.06676052 14.6843007,9.06676052 C14.6781427,9.06676052 14.6715506,9.06676052 14.6649584,9.0672918 C14.3685078,9.08556797 9.0526485,9.45411971 6.43377846,12.4846701 C7.30015612,9.40933246 9.43258677,5.66654268 14.6822086,5.66654268 L14.6843007,5.66654268 C14.7961308,5.66654268 14.9030662,5.60677323 14.9820144,5.50051642 C15.0609626,5.39425962 15.105371,5.2503879 15.105371,5.099822 L15.105371,1.79810423 L19.9323041,7.36659847 L15.105371,12.9351458 Z" id="Shape"></path>
                <path d="M18.5475635,11.7496208 C18.2975105,11.7496208 18.0951694,12.0211841 18.0951694,12.356782 L18.0951694,17.5714692 C18.0951694,18.2408435 17.6891726,18.7857346 17.1904237,18.7857346 L1.80953391,18.7857346 C1.31078502,18.7857346 0.904788159,18.2408435 0.904788159,17.5714692 L0.904788159,5.42858769 C0.904788159,4.75921344 1.31078502,4.21432231 1.80953391,4.21432231 L8.07481233,4.21432231 C8.32486535,4.21432231 8.52720641,3.94275899 8.52720641,3.60716115 C8.52720641,3.27156331 8.32486535,3 8.07481233,3 L1.80953391,3 C0.811527206,3.00005692 0,4.08921307 0,5.42858769 L0,17.5714123 C0,18.9107869 0.811527206,20 1.80953391,20 L17.1904661,20 C18.1884304,20 19,18.9108438 19,17.5714123 L19,12.356725 C18.9999576,12.0211841 18.7976165,11.7496208 18.5475635,11.7496208 Z" id="Path"></path>
            </g>
        </g>
    </g>
</svg>