<?xml version="1.0" encoding="UTF-8"?>
<svg width="150px" height="144px" viewBox="0 0 150 144" version="1.1" xmlns="http://www.w3.org/2000/svg" xmlns:xlink="http://www.w3.org/1999/xlink">
    <!-- Generator: Sketch 53.2 (72643) - https://sketchapp.com -->
    <title>003-success</title>
    <desc>Created with Sketch.</desc>
    <g id="Authentication" stroke="none" stroke-width="1" fill="none" fill-rule="evenodd">
        <g id="Forgot-password-done" transform="translate(-113.000000, -72.000000)" fill-rule="nonzero">
            <g id="003-success" transform="translate(113.000000, 72.000000)">
                <path d="M149.99888,48.8933711 C149.960795,51.7661376 148.803277,54.4516133 146.737558,56.4533752 L74.9984148,126.095465 L59.6940448,140.952507 C59.5739279,141.069381 59.4508812,141.177489 59.3249048,141.282676 L59.2838893,141.32066 C59.1667019,141.425847 59.0495146,141.528112 58.9293976,141.624533 C58.7946322,141.732642 58.6598668,141.831985 58.5221717,141.931328 L58.446,141.986843 C58.3200236,142.07742 58.1940473,142.167998 58.0622115,142.252732 C57.9186571,142.346231 57.7721729,142.433886 57.6256888,142.515698 L57.549517,142.562448 C57.4176813,142.641338 57.2829159,142.717306 57.1481505,142.787431 C56.9928773,142.869243 56.8376041,142.939367 56.6823309,143.009492 L56.6090889,143.041632 C56.4713938,143.105913 56.3336987,143.167272 56.1960036,143.222787 C56.026082,143.292911 55.8590901,143.351348 55.6891685,143.406864 L55.6335045,143.424395 C55.48995,143.476988 55.3522549,143.523738 55.2145598,143.564644 C55.0241305,143.620159 54.8366308,143.663987 54.6462014,143.707815 L54.6169046,143.713658 C54.4733501,143.751642 54.3444441,143.780861 54.2126083,143.807158 C53.9430775,143.856829 53.7145623,143.886048 53.541711,143.906501 C53.421594,143.926954 53.310266,143.941563 53.1960084,143.950328 C52.8561652,143.982469 52.5133923,144 52.1732561,144 C51.8275536,144 51.4789213,143.982469 51.1329258,143.950328 C51.0128088,143.938641 50.8926918,143.92111 50.7696451,143.903579 C50.5997235,143.880204 50.3682786,143.850985 50.0987477,143.798392 C49.9639823,143.772095 49.8262872,143.739955 49.6885922,143.704893 L49.6563656,143.696127 C49.4630066,143.652299 49.2725772,143.60555 49.0850775,143.550035 C48.9385934,143.506207 48.8008983,143.459457 48.6661329,143.409786 L48.6016798,143.386411 C48.4288285,143.327974 48.2559773,143.266615 48.083126,143.19649 C47.9483606,143.140975 47.8077358,143.076694 47.667111,143.009492 L47.5909393,142.974429 C47.4327364,142.901383 47.2745335,142.828337 47.12219,142.746525 C46.9844949,142.673478 46.8438702,142.591667 46.7061751,142.509855 L46.6300033,142.463105 C46.4835192,142.378371 46.337035,142.290716 46.1934806,142.194294 C46.0616448,142.106639 45.9298091,142.010218 45.7979734,141.910875 L45.718872,141.852438 C45.5841066,141.753095 45.4493411,141.653752 45.3175054,141.545643 C45.1944587,141.443378 45.0714121,141.332348 44.9512951,141.221317 L44.9132092,141.186255 C44.7843031,141.072303 44.6641862,140.964194 44.5469988,140.84732 L3.15351057,99.5664948 C-1.05117019,95.3730504 -1.05117019,88.5522752 3.15351057,84.3585387 C5.18993308,82.3275582 7.89754592,81.208196 10.7777171,81.208196 C13.6578882,81.208196 16.3655011,82.3275582 18.4019236,84.3585387 L52.2746232,118.140719 L74.9981219,96.0830609 L131.696859,41.0438112 C135.960133,36.9058821 142.799185,36.9993814 146.945565,41.248341 C148.952691,43.3059103 150.039896,46.0206046 149.99888,48.8933711 Z" id="Path" fill="#54E360"></path>
                <g id="Group" transform="translate(24.000000, 0.000000)" fill="#D7E3FF">
                    <path d="M33.1958974,59.5769677 C28.6930403,57.0987455 25.0068864,53.4016918 22.5359707,48.8861075 C21.6342857,47.2375842 19.9097436,46.213319 18.0345788,46.213319 C18.0342857,46.213319 18.0342857,46.213319 18.0342857,46.213319 C16.159707,46.213319 14.4345788,47.2372903 13.5323077,48.8855197 C11.0613919,53.4016918 7.3752381,57.0987455 2.87208791,59.5772616 C1.22842491,60.4822007 0.207765568,62.2121362 0.208058608,64.0928459 C0.208058608,65.9729677 1.22959707,67.7031971 2.87238095,68.6072545 C7.3752381,71.0854767 11.0613919,74.7825305 13.5326007,79.2989964 C14.4348718,80.9475197 16.159707,81.9711971 18.0348718,81.9709032 C19.9094505,81.9709032 21.6345788,80.9463441 22.5359707,79.2987025 C25.0071795,74.7822366 28.6933333,71.0851828 33.1961905,68.6069606 C34.8395604,67.7026093 35.8605128,65.9729677 35.8605128,64.092552 C35.8605128,62.2124301 34.8395604,60.4819068 33.1958974,59.5769677 Z" id="Path"></path>
                    <path d="M79.8244689,44.3984444 C79.8244689,46.2768029 78.8014652,48.0082079 77.1604396,48.9107957 C72.6555311,51.388724 68.9714286,55.0866595 66.4978755,59.6048889 C65.5979487,61.2510609 63.8719414,62.2767957 61.9988278,62.2767957 C61.9958974,62.2767957 61.9958974,62.2767957 61.9958974,62.2767957 C60.1201465,62.2767957 58.3967766,61.250767 57.4942125,59.6019498 C55.7737729,56.4565591 53.4613919,53.7052975 50.6945055,51.4915914 C49.4927473,50.5243441 48.20337,49.6602581 46.8375092,48.9107957 C45.1932601,48.0082079 44.1702564,46.2770968 44.1702564,44.3984444 C44.1702564,42.517147 45.1932601,40.7857419 46.8342857,39.8831541 C48.2001465,39.1307527 49.4895238,38.2663728 50.6942125,37.3023584 C53.4610989,35.0860072 55.7734799,32.3373907 57.4968498,29.1890609 C58.3964835,27.5428889 60.1198535,26.5171541 61.9958974,26.5171541 C61.9958974,26.5171541 61.9958974,26.5171541 61.9988278,26.5171541 C63.8716484,26.5171541 65.5979487,27.5431828 66.4978755,29.1890609 C68.9714286,33.7072903 72.6555311,37.4052258 77.1604396,39.8831541 C78.8014652,40.7857419 79.8244689,42.517147 79.8244689,44.3984444 Z" id="Path"></path>
                    <path d="M41.9885714,13.425957 C37.4857143,10.9477348 33.7995604,7.250681 31.3286447,2.73509677 C30.4269597,1.08657348 28.7024176,0.0623082437 26.8272527,0.0623082437 C26.8269597,0.0623082437 26.8269597,0.0623082437 26.8269597,0.0623082437 C24.952381,0.0623082437 23.2272527,1.08627957 22.3249817,2.73450896 C19.8540659,7.250681 16.1679121,10.9477348 11.6647619,13.4262509 C10.0210989,14.33119 9.00043956,16.0611254 9.0007326,17.9418351 C9.0007326,19.821957 10.0222711,21.5521864 11.6650549,22.4562437 C16.1679121,24.9344659 19.8540659,28.6315197 22.3252747,33.1479857 C23.2275458,34.796509 24.952381,35.8201864 26.8275458,35.8198925 C28.7021245,35.8198925 30.4272527,34.7953333 31.3286447,33.1476918 C33.7998535,28.6312258 37.4860073,24.934172 41.9888645,22.4559498 C43.6322344,21.5513047 44.6531868,19.821957 44.6531868,17.9415412 C44.6531868,16.0614194 43.6322344,14.3308961 41.9885714,13.425957 Z" id="Path"></path>
                </g>
                <path d="M149.99888,48.8815664 C149.960795,51.7512198 148.803302,54.4337854 146.737626,56.4333781 L75,126 L75,96.0201188 L131.697246,41.0405128 C135.96043,36.9070677 142.799337,37.0004657 146.94563,41.2448209 C148.952713,43.3001605 150.039895,46.011913 149.99888,48.8815664 Z" id="Path" fill="#00CC71"></path>
                <path d="M104,44.0014794 C104,45.8924632 102.98156,47.6355059 101.347856,48.5441604 C96.8630465,51.0387441 93.1953806,54.7615353 90.7328632,59.310134 C89.8369515,60.9673708 88.1186447,62 86.2538881,62 C86.2509708,62 86.2509708,62 86.2509708,62 C84.3835885,62 82.6679074,60.9670749 81.7693701,59.3071751 C80.0566062,56.1406427 77.754542,53.3708885 75,51.142303 L75,36.857697 C77.754542,34.6264486 80.0566062,31.8593573 81.7722874,28.689866 C82.6679074,27.0326292 84.3835885,26 86.2512625,26 C86.2512625,26 86.2512625,26 86.2541798,26 C88.1186447,26 89.8372432,27.0329251 90.7331549,28.689866 C93.1956723,33.2384647 96.8633382,36.9612559 101.348148,39.4558396 C102.98156,40.3644941 104,42.1075368 104,44.0014794 Z" id="Path" fill="#B5BFF7"></path>
            </g>
        </g>
    </g>
</svg>