<?xml version="1.0" encoding="UTF-8"?>
<svg width="22px" height="26px" viewBox="0 0 22 26" version="1.1" xmlns="http://www.w3.org/2000/svg" xmlns:xlink="http://www.w3.org/1999/xlink">
    <!-- Generator: Sketch 53.2 (72643) - https://sketchapp.com -->
    <title>002-clipboard</title>
    <desc>Created with Sketch.</desc>
    <g id="Conversation" stroke="none" stroke-width="1" fill="none" fill-rule="evenodd">
        <g id="Menu-Leader" transform="translate(-20.000000, -115.000000)" fill="#AEAEAE" fill-rule="nonzero">
            <g id="Group" transform="translate(20.000000, 115.000000)">
                <g id="002-clipboard">
                    <path d="M18.4373342,3.47240977 L16.004641,3.47240977 L16.004641,2.45640866 C16.004641,2.12769401 15.6205541,1.97829386 15.268449,1.97829386 L13.379935,1.97829386 C12.9318235,0.78297825 11.8114833,0.185320445 10.531112,0.185320445 C9.26483226,0.140877904 8.11306177,0.865743189 7.68228895,1.97829386 L5.82575672,1.97829386 C5.47365155,1.97829386 5.12154639,2.12769401 5.12154639,2.45640866 L5.12154639,3.47240977 L2.68879194,3.47240977 C1.24716422,3.48676637 0.0677620172,4.54846837 0,5.89289814 L0,23.0157456 C0,24.3306042 1.28037128,25.2868339 2.68879194,25.2868339 L18.4373342,25.2868339 C19.8457548,25.2868339 21.1261261,24.3306042 21.1261261,23.0157456 L21.1261261,5.89295534 C21.0583641,4.54846837 19.8789619,3.48676637 18.4373342,3.47240977 Z M6.4018564,3.17360947 L8.16238223,3.17360947 C8.46970075,3.13860453 8.71654809,2.92033846 8.77058616,2.63572317 C8.96014826,1.8650426 9.68439311,1.31182733 10.531112,1.2910074 C11.3699886,1.31474441 12.0833278,1.8696756 12.2595948,2.63572317 C12.3170026,2.93017645 12.5801472,3.15124521 12.8997805,3.17360947 L14.724331,3.17360947 L14.724331,5.56424069 L6.4018564,5.56424069 L6.4018564,3.17360947 Z M19.8457548,23.0158028 C19.8457548,23.6732321 19.1415445,24.0915754 18.4373342,24.0915754 L2.68879194,24.0915754 C1.98458161,24.0915754 1.28037128,23.6732321 1.28037128,23.0158028 L1.28037128,5.89295534 C1.34568259,5.20864316 1.95296751,4.68030886 2.68879194,4.66778258 L5.12148512,4.66778258 L5.12148512,6.19181284 C5.15530486,6.52664764 5.46593183,6.77711596 5.82569545,6.7596135 L15.2683877,6.7596135 C15.6347682,6.77831711 15.9551367,6.53128065 16.0045797,6.19181284 L16.0045797,4.66772538 L18.4372729,4.66772538 C19.1730361,4.68030886 19.7803823,5.20858596 19.8456936,5.89289814 L19.8456936,23.0158028 L19.8457548,23.0158028 Z" id="Shape"></path>
                    <path d="M7.97341608,13.7959948 L5.94824522,15.7108009 L5.09389047,14.8318371 C4.85652932,14.5836315 4.46248196,14.5696921 4.20785929,14.8004734 C3.9627456,15.0552281 3.9627456,15.4560462 4.20785929,15.7108009 L5.50519935,17.0292166 C5.61749013,17.1539503 5.77968792,17.2229264 5.94818466,17.2175789 C6.11510666,17.2152357 6.27433668,17.1475214 6.39116996,17.0292166 L8.85932612,14.7063223 C8.87204514,14.6947862 8.88421906,14.6826493 8.89584788,14.6700918 C9.1203083,14.4273539 9.10395527,14.0500886 8.85932612,13.8274185 C8.62208611,13.5791528 8.22803875,13.5652134 7.97341608,13.7959948 Z" id="Path"></path>
                    <path d="M17.4374351,14.5282132 L9.7247271,14.5282132 C9.35431327,14.5282132 9.05405405,14.7289055 9.05405405,14.976489 C9.05405405,15.2240725 9.35431327,15.4247649 9.7247271,15.4247649 L17.4374351,15.4247649 C17.8078489,15.4247649 18.1081081,15.2240725 18.1081081,14.976489 C18.1081081,14.7289055 17.8078489,14.5282132 17.4374351,14.5282132 Z" id="Path"></path>
                    <path d="M17.4374351,10.0454545 L9.7247271,10.0454545 C9.35431327,10.0454545 9.05405405,10.2461469 9.05405405,10.4937304 C9.05405405,10.7413139 9.35431327,10.9420063 9.7247271,10.9420063 L17.4374351,10.9420063 C17.8078489,10.9420063 18.1081081,10.7413139 18.1081081,10.4937304 C18.1081081,10.2461469 17.8078489,10.0454545 17.4374351,10.0454545 Z" id="Path"></path>
                    <path d="M7.97341608,18.2787534 L5.94824522,20.1935595 L5.09389047,19.3145957 C4.85652932,19.0663901 4.46248196,19.0524507 4.20785929,19.283232 C3.9627456,19.5379867 3.9627456,19.9388048 4.20785929,20.1935595 L5.50519935,21.5119753 C5.61749013,21.6367089 5.77968792,21.705685 5.94818466,21.7003375 C6.11510666,21.6979943 6.27433668,21.63028 6.39116996,21.5119753 L8.85932612,19.1890809 C8.87204514,19.1775449 8.88421906,19.165408 8.89584788,19.1528505 C9.1203083,18.9101125 9.10395527,18.5328472 8.85932612,18.3101771 C8.62208611,18.0619115 8.22803875,18.0479721 7.97341608,18.2787534 Z" id="Path"></path>
                    <path d="M17.4374351,19.9075235 L9.7247271,19.9075235 C9.35431327,19.9075235 9.05405405,20.1082159 9.05405405,20.3557994 C9.05405405,20.6033829 9.35431327,20.8040752 9.7247271,20.8040752 L17.4374351,20.8040752 C17.8078489,20.8040752 18.1081081,20.6033829 18.1081081,20.3557994 C18.1081081,20.1082159 17.8078489,19.9075235 17.4374351,19.9075235 Z" id="Path"></path>
                    <path d="M3.65137149,12.7342496 L7.4146591,12.7342496 C7.43632928,12.7353509 7.45799946,12.7353509 7.47966965,12.7342496 C7.81101764,12.7170342 8.06512778,12.4458783 8.04715,12.1285829 L8.04715,8.85801775 C8.04715,8.52350706 7.76398487,8.2523511 7.4146591,8.2523511 L3.65137149,8.2523511 C3.30204572,8.2523511 3.01888059,8.52350706 3.01888059,8.85801775 L3.01888059,12.1285829 C3.01773049,12.1493341 3.01773049,12.1700852 3.01888059,12.1908363 C3.03685837,12.5081897 3.3200235,12.7514649 3.65137149,12.7342496 Z M4.2838624,9.46368441 L6.78216819,9.46368441 L6.78216819,11.5229163 L4.2838624,11.5229163 L4.2838624,9.46368441 Z" id="Shape"></path>
                </g>
            </g>
        </g>
    </g>
</svg>