<svg height="512pt" viewBox="0 0 512.00135 512" width="512pt" xmlns="http://www.w3.org/2000/svg"><path d="m72.472656 62.167969c5.519532 0 10-4.480469 10-10s-4.480468-10-10-10c-5.519531 0-10 4.480469-10 10s4.480469 10 10 10zm0 0"/><path d="m143.125 368.871094c70.464844 70.457031 157.28125 119.140625 251.070312 140.785156 40.984376 9.460938 82.238282-10.4375 100.746094-47.445312l11.832032-23.667969c11.613281-23.21875 3.269531-51.878907-19-65.242188l-75.363282-45.210937c-23.695312-14.222656-54.382812-6.558594-68.59375 17.148437l-13.09375 21.804688c-2.539062 4.230469-7.707031 5.972656-12.292968 4.136719-78.261719-31.300782-146.320313-99.355469-177.617188-177.609376-1.835938-4.582031-.09375-9.75 4.140625-12.289062 29.871094-17.9375 19.570313-11.753906 21.796875-13.089844 23.703125-14.210937 31.382812-44.894531 17.15625-68.59375l-45.214844-75.367187c-13.363281-22.269531-42.019531-30.617188-65.238281-19l-23.675781 11.832031c-37.316406 18.660156-56.824219 60.089844-47.441406 100.746094 21.640624 93.785156 70.328124 180.601562 140.789062 251.0625zm258.992188-23.632813 75.363281 45.210938c13.363281 8.019531 18.371093 25.214843 11.398437 39.148437l-5.25 10.507813-127.5-76.523438 4.835938-8.058593c8.527344-14.21875 26.929687-18.820313 41.152344-10.285157zm-343.394532-310.289062 23.675782-11.832031c14.046874-7.027344 31.191406-1.84375 39.140624 11.402343l45.214844 75.367188c8.53125 14.210937 3.941406 32.617187-10.296875 41.152343l-8.070312 4.847657-45.277344-75.503907c-2.839844-4.734374-8.980469-6.273437-13.71875-3.429687-4.734375 2.839844-6.273437 8.980469-3.433594 13.71875l45.417969 75.734375c-10.273438 8.15625-14.132812 22.101562-9.132812 34.589844 16.238281 40.605468 42.433593 79.679687 75.757812 113 33.320312 33.316406 72.398438 59.511718 113 75.753906 12.503906 5 26.460938 1.132812 34.609375-9.152344l128.871094 77.339844c-15.511719 25.949219-45.914063 39.117188-75.789063 32.230469-183.152344-42.265625-334.601562-193.714844-376.867187-376.855469-7.296875-31.621094 7.878906-63.847656 36.898437-78.363281zm0 0"/></svg>