<svg id="Layer_1" enable-background="new 0 0 512 512" height="512" viewBox="0 0 512 512" width="512" xmlns="http://www.w3.org/2000/svg"><g><path d="m0 70.334v371.333h512v-371.333zm482 227.555h-72.334v-83.778h72.334zm0-113.778h-72.334v-83.778h72.334zm-72.333 143.778h72.333v83.778h-72.334v-83.778zm-30 83.778h-247.334v-311.333h247.333v311.333zm-277.333-113.778h-72.334v-83.778h72.334zm0-113.778h-72.334v-83.778h72.334zm-72.334 143.778h72.334v83.778h-72.334z"/><path d="m327.5 268.991v-25.98l-113.137-65.32-22.5 12.99v130.639l22.5 12.99zm-105.637-52.329 68.137 39.338-68.137 39.339z"/></g></svg>